<svg xmlns="http://www.w3.org/2000/svg" height="99" width="459"><defs><clipPath id="a"><path d="M733.43 369.55c0-198.82-161.17-360-360-360-198.82 0-360 161.18-360 360s161.18 360 360 360c198.83 0 360-161.18 360-360z"/></clipPath><linearGradient id="b" gradientTransform="scale(711.83) rotate(-90 .77 .24)" gradientUnits="userSpaceOnUse" x2="1"><stop offset="0" stop-color="#f14624"/><stop offset="1" stop-color="#ea038c"/></linearGradient></defs><g clip-path="url(#a)" transform="matrix(.13333 0 0 -.13333 0 99)"><path d="M733.43 369.55c0-198.82-161.17-360-360-360-198.82 0-360 161.18-360 360s161.18 360 360 360c198.83 0 360-161.18 360-360" fill="url(#b)"/></g><path d="M37.45 24.78v49.89l43.2-24.94-43.2-24.95zm4.14 7.17l30.8 17.78-30.8 17.78V31.95" fill="#fff"/><path d="M27.52 30.23v39l33.77-19.5-33.77-19.5zm4.13 7.16l21.37 12.34-21.37 12.33V37.39" fill="#fff"/><path d="M123.8 36.72h10.26c6.06 0 9.89 3.45 9.89 8.7v.07c0 5.83-4.69 8.88-10.41 8.88h-5.17v8.36h-4.57zm9.89 13.53c3.45 0 5.61-1.94 5.61-4.65v-.07c0-3.05-2.2-4.65-5.61-4.65h-5.32v9.37h5.32M155.3 36.72h4.57v21.85h13.67v4.16H155.3V36.72M183.81 51.7V36.72h4.57v14.79c0 4.83 2.5 7.43 6.58 7.43 4.05 0 6.54-2.45 6.54-7.24V36.72h4.57v14.75c0 7.77-4.38 11.67-11.18 11.67-6.77 0-11.08-3.9-11.08-11.44M219.02 36.72h11.6c3.27 0 5.83.97 7.5 2.6a7.87 7.87 0 0 1 2.16 5.61v.08c0 4.27-2.57 6.84-6.2 7.88l7.01 9.84h-5.38l-6.4-9.06h-5.72v9.06h-4.57zm11.26 12.9c3.27 0 5.35-1.71 5.35-4.35v-.08c0-2.78-2-4.3-5.38-4.3h-6.66v8.73h6.69M261.77 36.54h4.24l11.44 26.2h-4.83l-2.64-6.29h-12.3l-2.67 6.28h-4.68zm6.54 15.86l-4.5-10.4-4.45 10.4zM288.58 36.72h4.57v21.85h13.67v4.16h-18.24V36.72M316.5 58.94l2.75-3.27c2.5 2.16 4.98 3.38 8.22 3.38 2.82 0 4.6-1.3 4.6-3.27v-.07c0-1.86-1.04-2.86-5.87-3.98-5.53-1.33-8.66-2.97-8.66-7.76v-.08c0-4.46 3.72-7.54 8.89-7.54 3.79 0 6.8 1.15 9.43 3.27l-2.45 3.46c-2.34-1.75-4.68-2.68-7.06-2.68-2.68 0-4.24 1.37-4.24 3.08v.08c0 2 1.2 2.9 6.17 4.09 5.5 1.33 8.36 3.3 8.36 7.61v.08c0 4.87-3.82 7.76-9.29 7.76-3.97 0-7.72-1.37-10.85-4.16M348.97 36.72h4.56v26.01h-4.56V36.72M366 49.8v-.07c0-7.29 5.58-13.46 13.42-13.46 4.54 0 7.33 1.27 10 3.54l-2.9 3.45c-2-1.7-3.97-2.79-7.28-2.79-4.8 0-8.44 4.2-8.44 9.18v.08c0 5.35 3.53 9.29 8.85 9.29 2.45 0 4.68-.78 6.28-1.97v-4.87h-6.66V48.2h11.08v10.93a16.6 16.6 0 0 1-10.85 4.05c-8.14 0-13.5-5.8-13.5-13.38M402.96 36.72h4.57v10.81h12.41V36.72h4.57v26.01h-4.57V51.77h-12.4v10.96h-4.58V36.72M436 36.72v4.24h8.26v21.77h4.6V40.96h8.26v-4.24H436" fill="#211c1d"/></svg>