<svg width="310" height="290" xmlns="http://www.w3.org/2000/svg"><path fill="none" d="M-1-1h312v292H-1z"/><g><path d="M221.95 254.02c-4.77.8-7.92 4.16-7.62 8.16.26 3.71 2.76 5.9 9.15 8.04 4.85 1.62 6.14 2.8 5.74 5.3-.39 2.36-3.97 3.52-7.55 2.43-2.16-.66-2.45-.98-2.8-3.2l-.3-1.95-2.05 2.82c-2.29 3.13-2.27 3.03-.85 4.15 5.92 4.68 16.76 3.28 18.74-2.42 1.8-5.2-1.16-8.99-9.03-11.55-4.35-1.42-5.63-2.47-5.46-4.52.21-2.53 3.4-3.75 7.36-2.81 2.15.5 2.25.6 2.62 2.6.18.96.37 1.79.42 1.84.16.16 4-5.34 3.9-5.6-.78-2-8.15-3.98-12.27-3.3m-146.87.35c0 .1.63 1.01 1.4 2.04l1.4 1.87v20.34l-1.4 1.86a20.26 20.26 0 0 0-1.4 2c0 .07 4.68.13 10.4.13h10.4v-7.85l-.75.57c-.41.3-1.42 1.08-2.23 1.72l-1.48 1.16h-7.94v-19.93l1.4-1.87c.77-1.03 1.4-1.94 1.4-2.04 0-.09-2.52-.16-5.6-.16-3.08 0-5.6.07-5.6.16m49.6 12.08c-3.28 9.46-4.5 12.7-5.31 14.21l-1.06 1.95h9.57l-.94-1.88-.93-1.88.58-1.92.57-1.92h9.26l.53 1.75c.67 2.2.7 1.93-.37 4.05l-.9 1.8h9.64l-.5-.85-1.04-1.9c-.3-.57-2.47-6.56-4.8-13.3l-4.24-12.25-2.9-.06-2.9-.05-4.26 12.25m43.65-11.99c.07.17.7 1.1 1.43 2.1l1.32 1.8v20.17l-1.4 1.92a23.72 23.72 0 0 0-1.4 2.04c0 .2 14.64.13 15.96-.09 3.91-.63 6.28-2.7 6.97-6.07.73-3.62-.77-7.04-3.56-8.08l-1-.37.99-.6c5.14-3.2 3.05-10.93-3.4-12.6-1.83-.47-16.08-.66-15.9-.22m14.63 4.75c1.5.75 1.8 1.31 1.8 3.2 0 2.84-1.14 3.62-5.52 3.76l-2.77.1v-7.71l2.75.08c2.44.07 2.86.13 3.74.57m-49.5 6.64l1.54 4.86-3.1.05c-3.7.07-3.45.27-2.69-2.1l1.58-4.9c.52-1.62.98-2.91 1.03-2.86.05.04.78 2.27 1.63 4.95m49.44 4.36c2.03.38 2.98 1.67 2.98 4.05 0 3.14-1.3 3.95-6.35 3.95h-3.05V270h2.67c1.47 0 3.16.1 3.75.2" fill="#bfbfbf" fill-rule="evenodd"/><path d="M159.83 2.81c-2.48.6-3.36 1.7-3.88 4.85-.7 4.19.19 6.32 3.82 9.24 1.87 1.5 2.1 1.93 1.62 2.88-.36.7-.55.76-.92.3-.63-.75-1.84-1.15-4.43-1.47-2.83-.36-6.12 1.04-9.1 3.86-1.9 1.8-7.11 9-7.37 10.18-.08.35-1.93 3.56-4.12 7.12a189.55 189.55 0 0 0-3.97 6.63c0 .28 1.25.75 3.18 1.2l1.88.43.82-.76 2.22-2.1 1.4-1.35 2.17.47 2.17.47 1.8-.8a7.83 7.83 0 0 1 1.9-.69c.05.06-.44 1.81-1.11 3.9l-1.21 3.79.12 2.79.12 2.79-1.48.13c-2.24.2-5.73 1.05-7.1 1.73-3.73 1.82-10.71 8.06-14.64 13.06-2.72 3.46-3.27 3.98-6.61 6.2-4.3 2.84-6 3.85-8.36 4.96-2.95 1.39-3.39 2.17-3.22 5.86.16 3.59 1.4 6.47 3.35 7.82l.86.6 6.16.13c13.17.27 18.12 1.5 19.27 4.76 3.5 9.9-.55 21.42-10.05 28.59l-1.65 1.25-1.65-1.15a58.61 58.61 0 0 1-14.28-81.75c2.24-3.18 4.17-5.4 8.16-9.33 5.22-5.16 6.97-8.19 6.98-12.07v-.76l-1.35.74c-31.61 17.5-44 58.13-27.73 90.89 20.8 41.86 76.31 51.33 109.65 18.7 31-30.32 27.1-80.44-8.22-105.89-4.78-3.43-14.3-8.29-17.55-8.94l-.54-.1-.13 1.66c-.07.92-.07 2.28 0 3.02l.13 1.34 3.82 1.9c24.78 12.3 37.44 38.87 31.4 65.9-1.7 7.58-6.25 17.15-10.65 22.4l-.58.68-1.97-1.76a102.3 102.3 0 0 0-10.1-7.9c-4.3-2.91-5.67-4.67-7.19-9.2-1.12-3.34-1.86-9.75-1.5-13.06l.14-1.34.84.12c3.48.47 10.11-1.08 13.79-3.24l1.56-.91-.6-1.04c-4.19-7.25-9.59-10.8-17.12-11.24-1.86-.11-2.45-.22-2.64-.47-.37-.5-.38-.49 1.25-1.52 5.22-3.3 9.09-9.27 9.09-14.02 0-3.73-1.4-6.51-6.33-12.61-4.13-5.12-5.2-6.82-6.13-9.8-1.45-4.59-.94-10.71 1.38-16.58.32-.82-.5.12-1.92 2.21-3.47 5.1-5.02 9.67-4.74 13.95.22 3.33.94 5.24 4.92 12.94 4.17 8.08 3.35 12.38-2.63 13.93-1.84.48-4.53.4-10.78-.3a392 392 0 0 0-5.73-.63c-.1 0-.26-.88-.34-1.96l-.14-1.95 1.75-6.7 1.74-6.69 1.13-1.17c.61-.64 1.47-1.4 1.9-1.67 2.7-1.74 3.05-2.35 5.71-9.87l.96-2.71-.15-2.4c-.27-4.1-.78-5.23-3.16-7.05-2.59-1.98-3.17-2.89-2.48-3.82.6-.8 1.25-.72 5.43.68 2.14.72 3.95 1.31 4.02 1.31.07 0-1.07-1.2-2.54-2.65l-2.67-2.65V5.95c0-2.43-2.74-3.9-5.85-3.14m-34.87 13.94c1.7 5.73 1.77 11.49.2 15.88-1.06 2.99-2.3 4.68-7.21 9.8-4.77 4.97-6.09 7.22-6.1 10.36-.01 4.7 4.44 10.25 10.68 13.3l1.8.88 1.16-1.45a30.02 30.02 0 0 1 7.77-6.7l1.63-.99-1.05-.1c-.59-.07-2.41-.16-4.06-.2-9.83-.3-11.15-4.48-4.54-14.38 5.29-7.9 6.03-11.96 3.51-19.2-1.04-2.98-4.48-9.52-3.8-7.2m16.93 3.35c-3.42.68-9.42 2.34-10.26 2.84-.08.05.03.38.25.74.5.8 1 2.9 1 4.2 0 .83.06.95.36.83l5.38-2.1c.24-.1.95-.84 1.59-1.65.63-.8 2-2.34 3.05-3.41 2.18-2.24 2.25-2.17-1.37-1.45m11.38 26.44l-1.64 5.76.22 2c.25 2.36.4 2.1-1.28 2.15l-1.38.05-.15-2.5-.14-2.5 1.6-4.8 1.6-4.82 1.34-.73c1.73-.94 1.74-1.3-.17 5.4m24.55 142.48c.07 2.79.16 5.12.21 5.17.1.11 9.05.48 9.15.37.03-.04.12-1.11.2-2.4l.14-2.31-4.76-2.88-4.91-2.95c-.09-.03-.1 2.22-.03 5m86.32-1.76l-4.65 2.83v.8c0 2.88.23 4.08.78 4 .28-.05 2.39-.15 4.67-.22l4.15-.12v-5.08c0-2.8-.07-5.07-.15-5.06-.08 0-2.24 1.29-4.8 2.85m-130.41-1.02l2.42 3.23 1.94 2.58V235H146l.26-1.84c.36-2.5.34-2.49 1.22-1.38 5.04 6.37 15.74 4.74 19.46-2.98 3.3-6.85 2.66-18.07-1.35-23.7-4.06-5.69-12.24-6.7-16.96-2.1l-1.35 1.32V185.6h-14.05l.49.65m100.96 10.35v4.2h-2.4c-1.32 0-2.4.04-2.4.1 0 .05 1.08 1.48 2.4 3.18l2.4 3.08v9.3c0 14.57.81 17.03 6.17 18.7 2.13.65 9.2.33 10-.46a28.9 28.9 0 0 0-.27-3.26l-.36-3.16-2.24.08-2.23.09-.73-.64c-1.12-.98-1.14-1.21-1.13-11.41v-9.3l2.9-3.1 2.89-3.1-2.9-.05-2.9-.06v-8.39h-9.2v4.2m-221 3.02c-6.52 1-10.8 5.98-10 11.65.63 4.4 3.8 6.77 11.7 8.73 6.2 1.54 8.06 2.98 7.3 5.67-.55 2-2.26 2.84-5.8 2.82-3.11-.02-3.06 0-8.33-3.05A96.72 96.72 0 0 0 4.2 223c-.07 0-.13 1.66-.13 3.69v3.69l1.28.92c5.41 3.86 14.56 4.64 20.46 1.75 4.64-2.26 6.86-6.88 5.49-11.4-1.17-3.84-4.5-6-11.87-7.65-1.46-.33-3.23-.8-3.93-1.02-5.36-1.78-3.64-7.39 2.25-7.38 2.6 0 3.03.19 9.2 3.87l3.57 2.14-.09-4.22c-.1-4.88.1-4.44-2.46-5.68-3.88-1.87-9.93-2.76-14.3-2.09m80.7.78a11.5 11.5 0 0 0-6.18 3.65l-1.08 1.21-.13-1.58a42.5 42.5 0 0 0-.23-2.23l-.1-.65H73.28v2.69c0 2.38.04 2.7.35 2.78.2.06 1.11.25 2.05.42l2.15.42.45.1v10.64l-.01 10.65-2.2 3.2-2.21 3.2 4.3.05c2.36.03 6.27.03 8.7 0l4.4-.05-1.99-3.2-1.98-3.2v-9.2l-.01-9.2.6-.74c2.16-2.62 7.49-2.83 9.14-.38 1.08 1.6 1.13 2.07 1.21 11.08l.08 8.36-1.9 3.3-1.9 3.28h16.61l-.29-.45c-.16-.25-1.02-1.73-1.92-3.3l-1.63-2.83v-17.88l.54-.72c2.26-2.98 7.03-3.51 9.13-1.02 1.13 1.35 1.2 1.93 1.28 11.2l.07 8.5-2 3.2-1.99 3.2 8.62.05c4.73.03 8.65.01 8.7-.03a27.3 27.3 0 0 0-1.98-3.06l-2.07-2.96-.12-8.9c-.15-10.7-.46-12.7-2.4-15.54-4.13-6-13.96-5.69-18.01.56-.78 1.2-.62 1.22-1.4-.23-1.9-3.57-6.46-5.34-11.27-4.39m112.5.1c-7.84 1.56-12.3 7.88-12.28 17.4.02 10.89 5.46 17.2 15.2 17.64 10.52.47 17.07-6.3 17.07-17.64 0-12.28-8.52-19.7-20-17.4m82.5.1c-6.86 1.49-11.27 7.1-11.87 15.1-.88 11.8 4.72 19.37 14.7 19.84 6.9.33 11.3-2.41 13.3-8.28l.55-1.64-.64-.2a1484.94 1484.94 0 0 0-6.25-1.96c-.14-.05-.28.3-.36.88-.7 5.1-8.45 5.95-10.86 1.2-1.9-3.76-1.86-11.62.08-15.18 1.6-2.96 5.77-4.12 8.81-2.47 1.15.63 1.1.53 2.2 4.58l.37 1.37 3.59-4.43c4.13-5.1 3.87-4.53 2.59-5.6-3.6-3-10.7-4.4-16.2-3.22m-255.5.32c0 .06.68 1.38 1.5 2.93 1.2 2.24 2.65 5.76 7.01 17.06l5.5 14.23-.61 1.48c-1.62 3.91-2.97 5.03-6.1 5.02h-1.63l-.51 3.23a52.68 52.68 0 0 0-.47 3.3c.94 1.08 7.6.75 10.1-.5 3.6-1.82 4.18-2.97 12.18-24.07 5.4-14.26 6.65-17.36 7.92-19.73a49.8 49.8 0 0 0 1.5-2.94c0-.06-3.69-.12-8.2-.12-4.53 0-8.2.07-8.16.16.04.1.86 1.43 1.82 2.97a22.66 22.66 0 0 1 1.75 3.1c0 .56-5.33 16-5.52 16-.1 0-.29-.58-.42-1.27-.13-.7-1.28-4.27-2.55-7.94a251.02 251.02 0 0 1-2.31-6.85c0-.09.8-1.47 1.8-3.07.99-1.6 1.8-2.95 1.8-3 0-.06-3.7-.1-8.2-.1-4.51 0-8.2.05-8.2.1m139.1.09c.06.1 1.14 1.56 2.4 3.23l2.3 3.03v21.29l-2.2 3.18-2.18 3.18 8.82.05c4.85.03 8.86.01 8.91-.04.05-.04-.86-1.48-2.03-3.18l-2.12-3.1V200.8h-7.01c-4.35 0-6.97.07-6.9.19m82.7-.1c0 .05 1.09 1.5 2.4 3.24l2.4 3.16v21.21l-2.2 3.2-2.22 3.2 8.85.05c4.86.03 8.88.02 8.92-.03.05-.04-.87-1.46-2.03-3.14l-2.11-3.06V200.8h-7c-3.85 0-7 .04-7 .09m-100.43 6.62c2.94.87 4.36 3.97 4.57 9.89.24 6.9-1.25 10.26-4.9 11.01-2.5.52-5-.14-6.59-1.73l-1.05-1.05v-15.19l.93-1.03a6.69 6.69 0 0 1 7.04-1.9m58.25-.1c3.16.87 4.77 4.07 4.93 9.8.22 7.98-2.12 11.61-7.32 11.35-4.56-.23-6.52-3.4-6.52-10.56-.01-8.16 3.34-12.14 8.91-10.6" fill="#494949" fill-rule="evenodd"/></g></svg>