<?xml version="1.0" encoding="utf-8"?>
<!-- Generator: Adobe Illustrator 15.0.2, SVG Export Plug-In . SVG Version: 6.00 Build 0)  -->
<!DOCTYPE svg PUBLIC "-//W3C//DTD SVG 1.1//EN" "http://www.w3.org/Graphics/SVG/1.1/DTD/svg11.dtd">
<svg version="1.1" id="Layer_1" xmlns="http://www.w3.org/2000/svg" xmlns:xlink="http://www.w3.org/1999/xlink" x="0px" y="0px"
	 width="100px" height="100px" viewBox="0 0 100 100" enable-background="new 0 0 100 100" xml:space="preserve">
<g opacity="0.05">
	<g>
		<path d="M33.232,67.475c0.389-0.389,0.548-0.866,0.354-1.061s-0.672-0.035-1.061,0.354l-0.758,0.758
			c-0.389,0.389-0.548,0.866-0.354,1.061s0.672,0.035,1.061-0.354L33.232,67.475z"/>
	</g>
	<g>
		<path d="M23.232,77.475c0.389-0.389,0.548-0.866,0.354-1.061s-0.672-0.035-1.061,0.354l-0.758,0.758
			c-0.389,0.389-0.548,0.866-0.354,1.061s0.672,0.035,1.061-0.354L23.232,77.475z"/>
	</g>
	<g>
		<path d="M71.768,27.525c-0.389,0.389-0.548,0.866-0.354,1.061s0.672,0.035,1.061-0.354l0.758-0.758
			c0.389-0.389,0.548-0.866,0.354-1.061s-0.672-0.035-1.061,0.354L71.768,27.525z"/>
	</g>
	<g>
		<path d="M61.768,37.525c-0.389,0.389-0.548,0.866-0.354,1.061s0.672,0.035,1.061-0.354l0.758-0.758
			c0.389-0.389,0.548-0.866,0.354-1.061s-0.672-0.035-1.061,0.354L61.768,37.525z"/>
	</g>
	<g>
		<path d="M28.232,72.475c0.389-0.389,0.548-0.866,0.354-1.061s-0.672-0.035-1.061,0.354l-0.758,0.758
			c-0.389,0.389-0.548,0.866-0.354,1.061s0.672,0.035,1.061-0.354L28.232,72.475z"/>
	</g>
	<g>
		<path d="M66.768,32.525c-0.389,0.389-0.548,0.866-0.354,1.061s0.672,0.035,1.061-0.354l0.758-0.758
			c0.389-0.389,0.548-0.866,0.354-1.061s-0.672-0.035-1.061,0.354L66.768,32.525z"/>
	</g>
	<g>
		<path d="M48.232,52.475c0.389-0.389,0.548-0.866,0.354-1.061s-0.672-0.035-1.061,0.354l-0.758,0.758
			c-0.389,0.389-0.548,0.866-0.354,1.061s0.672,0.035,1.061-0.354L48.232,52.475z"/>
	</g>
	<g>
		<path d="M51.768,47.525c-0.389,0.389-0.548,0.866-0.354,1.061s0.672,0.035,1.061-0.354l0.758-0.758
			c0.389-0.389,0.548-0.866,0.354-1.061s-0.672-0.035-1.061,0.354L51.768,47.525z"/>
	</g>
	<g>
		<path d="M43.232,57.475c0.389-0.389,0.548-0.866,0.354-1.061s-0.672-0.035-1.061,0.354l-0.758,0.758
			c-0.389,0.389-0.548,0.866-0.354,1.061s0.672,0.035,1.061-0.354L43.232,57.475z"/>
	</g>
	<g>
		<path d="M38.232,62.475c0.389-0.389,0.548-0.866,0.354-1.061s-0.672-0.035-1.061,0.354l-0.758,0.758
			c-0.389,0.389-0.548,0.866-0.354,1.061s0.672,0.035,1.061-0.354L38.232,62.475z"/>
	</g>
	<g>
		<path d="M56.768,42.525c-0.389,0.389-0.548,0.866-0.354,1.061s0.672,0.035,1.061-0.354l0.758-0.758
			c0.389-0.389,0.548-0.866,0.354-1.061s-0.672-0.035-1.061,0.354L56.768,42.525z"/>
	</g>
	<g>
		<path d="M18.232,82.475c0.389-0.389,0.548-0.866,0.354-1.061s-0.672-0.035-1.061,0.354l-0.758,0.758
			c-0.389,0.389-0.548,0.866-0.354,1.061s0.672,0.035,1.061-0.354L18.232,82.475z"/>
	</g>
	<g>
		<path d="M91.768,7.525c-0.389,0.389-0.548,0.866-0.354,1.061s0.672,0.035,1.061-0.354l0.758-0.758
			c0.389-0.389,0.548-0.866,0.354-1.061s-0.672-0.035-1.061,0.354L91.768,7.525z"/>
	</g>
	<g>
		<path d="M3.232,97.475c0.389-0.389,0.548-0.866,0.354-1.061s-0.672-0.035-1.061,0.354l-0.758,0.758
			c-0.389,0.389-0.548,0.866-0.354,1.061s0.672,0.035,1.061-0.354L3.232,97.475z"/>
	</g>
	<g>
		<path d="M96.768,2.525c-0.389,0.389-0.548,0.866-0.354,1.061s0.672,0.035,1.061-0.354l0.758-0.758
			c0.389-0.389,0.548-0.866,0.354-1.061s-0.672-0.035-1.061,0.354L96.768,2.525z"/>
	</g>
	<g>
		<path d="M81.768,17.525c-0.389,0.389-0.548,0.866-0.354,1.061s0.672,0.035,1.061-0.354l0.758-0.758
			c0.389-0.389,0.548-0.866,0.354-1.061s-0.672-0.035-1.061,0.354L81.768,17.525z"/>
	</g>
	<g>
		<path d="M13.232,87.475c0.389-0.389,0.548-0.866,0.354-1.061s-0.672-0.035-1.061,0.354l-0.758,0.758
			c-0.389,0.389-0.548,0.866-0.354,1.061s0.672,0.035,1.061-0.354L13.232,87.475z"/>
	</g>
	<g>
		<path d="M8.232,92.475c0.389-0.389,0.548-0.866,0.354-1.061s-0.672-0.035-1.061,0.354l-0.758,0.758
			c-0.389,0.389-0.548,0.866-0.354,1.061s0.672,0.035,1.061-0.354L8.232,92.475z"/>
	</g>
	<g>
		<path d="M76.768,22.525c-0.389,0.389-0.548,0.866-0.354,1.061s0.672,0.035,1.061-0.354l0.758-0.758
			c0.389-0.389,0.548-0.866,0.354-1.061s-0.672-0.035-1.061,0.354L76.768,22.525z"/>
	</g>
	<g>
		<path d="M86.768,12.525c-0.389,0.389-0.548,0.866-0.354,1.061s0.672,0.035,1.061-0.354l0.758-0.758
			c0.389-0.389,0.548-0.866,0.354-1.061s-0.672-0.035-1.061,0.354L86.768,12.525z"/>
	</g>
	<g>
		<path d="M23.232,67.475c0.389-0.389,0.548-0.866,0.354-1.061s-0.672-0.035-1.061,0.354l-0.758,0.758
			c-0.389,0.389-0.548,0.866-0.354,1.061s0.672,0.035,1.061-0.354L23.232,67.475z"/>
	</g>
	<g>
		<path d="M13.232,77.475c0.389-0.389,0.548-0.866,0.354-1.061s-0.672-0.035-1.061,0.354l-0.758,0.758
			c-0.389,0.389-0.548,0.866-0.354,1.061s0.672,0.035,1.061-0.354L13.232,77.475z"/>
	</g>
	<g>
		<path d="M61.768,27.525c-0.389,0.389-0.548,0.866-0.354,1.061s0.672,0.035,1.061-0.354l0.758-0.758
			c0.389-0.389,0.548-0.866,0.354-1.061s-0.672-0.035-1.061,0.354L61.768,27.525z"/>
	</g>
	<g>
		<path d="M51.768,37.525c-0.389,0.389-0.548,0.866-0.354,1.061s0.672,0.035,1.061-0.354l0.758-0.758
			c0.389-0.389,0.548-0.866,0.354-1.061s-0.672-0.035-1.061,0.354L51.768,37.525z"/>
	</g>
	<g>
		<path d="M18.232,72.475c0.389-0.389,0.548-0.866,0.354-1.061s-0.672-0.035-1.061,0.354l-0.758,0.758
			c-0.389,0.389-0.548,0.866-0.354,1.061s0.672,0.035,1.061-0.354L18.232,72.475z"/>
	</g>
	<g>
		<path d="M56.768,32.525c-0.389,0.389-0.548,0.866-0.354,1.061s0.672,0.035,1.061-0.354l0.758-0.758
			c0.389-0.389,0.548-0.866,0.354-1.061s-0.672-0.035-1.061,0.354L56.768,32.525z"/>
	</g>
	<g>
		<path d="M38.232,52.475c0.389-0.389,0.548-0.866,0.354-1.061s-0.672-0.035-1.061,0.354l-0.758,0.758
			c-0.389,0.389-0.548,0.866-0.354,1.061s0.672,0.035,1.061-0.354L38.232,52.475z"/>
	</g>
	<g>
		<path d="M41.768,47.525c-0.389,0.389-0.548,0.866-0.354,1.061s0.672,0.035,1.061-0.354l0.758-0.758
			c0.389-0.389,0.548-0.866,0.354-1.061s-0.672-0.035-1.061,0.354L41.768,47.525z"/>
	</g>
	<g>
		<path d="M33.232,57.475c0.389-0.389,0.548-0.866,0.354-1.061s-0.672-0.035-1.061,0.354l-0.758,0.758
			c-0.389,0.389-0.548,0.866-0.354,1.061s0.672,0.035,1.061-0.354L33.232,57.475z"/>
	</g>
	<g>
		<path d="M28.232,62.475c0.389-0.389,0.548-0.866,0.354-1.061s-0.672-0.035-1.061,0.354l-0.758,0.758
			c-0.389,0.389-0.548,0.866-0.354,1.061s0.672,0.035,1.061-0.354L28.232,62.475z"/>
	</g>
	<g>
		<path d="M46.768,42.525c-0.389,0.389-0.548,0.866-0.354,1.061s0.672,0.035,1.061-0.354l0.758-0.758
			c0.389-0.389,0.548-0.866,0.354-1.061s-0.672-0.035-1.061,0.354L46.768,42.525z"/>
	</g>
	<g>
		<path d="M8.232,82.475c0.389-0.389,0.548-0.866,0.354-1.061s-0.672-0.035-1.061,0.354l-0.758,0.758
			c-0.389,0.389-0.548,0.866-0.354,1.061s0.672,0.035,1.061-0.354L8.232,82.475z"/>
	</g>
	<g>
		<path d="M81.768,7.525c-0.389,0.389-0.548,0.866-0.354,1.061s0.672,0.035,1.061-0.354l0.758-0.758
			c0.389-0.389,0.548-0.866,0.354-1.061s-0.672-0.035-1.061,0.354L81.768,7.525z"/>
	</g>
	<g>
		<path d="M86.768,2.525c-0.389,0.389-0.548,0.866-0.354,1.061s0.672,0.035,1.061-0.354l0.758-0.758
			c0.389-0.389,0.548-0.866,0.354-1.061s-0.672-0.035-1.061,0.354L86.768,2.525z"/>
	</g>
	<g>
		<path d="M71.768,17.525c-0.389,0.389-0.548,0.866-0.354,1.061s0.672,0.035,1.061-0.354l0.758-0.758
			c0.389-0.389,0.548-0.866,0.354-1.061s-0.672-0.035-1.061,0.354L71.768,17.525z"/>
	</g>
	<g>
		<path d="M3.232,87.475c0.389-0.389,0.548-0.866,0.354-1.061s-0.672-0.035-1.061,0.354l-0.758,0.758
			c-0.389,0.389-0.548,0.866-0.354,1.061s0.672,0.035,1.061-0.354L3.232,87.475z"/>
	</g>
	<g>
		<path d="M66.768,22.525c-0.389,0.389-0.548,0.866-0.354,1.061s0.672,0.035,1.061-0.354l0.758-0.758
			c0.389-0.389,0.548-0.866,0.354-1.061s-0.672-0.035-1.061,0.354L66.768,22.525z"/>
	</g>
	<g>
		<path d="M76.768,12.525c-0.389,0.389-0.548,0.866-0.354,1.061s0.672,0.035,1.061-0.354l0.758-0.758
			c0.389-0.389,0.548-0.866,0.354-1.061s-0.672-0.035-1.061,0.354L76.768,12.525z"/>
	</g>
	<g>
		<path d="M13.232,67.475c0.389-0.389,0.548-0.866,0.354-1.061s-0.672-0.035-1.061,0.354l-0.758,0.758
			c-0.389,0.389-0.548,0.866-0.354,1.061s0.672,0.035,1.061-0.354L13.232,67.475z"/>
	</g>
	<g>
		<path d="M3.232,77.475c0.389-0.389,0.548-0.866,0.354-1.061s-0.672-0.035-1.061,0.354l-0.758,0.758
			c-0.389,0.389-0.548,0.866-0.354,1.061s0.672,0.035,1.061-0.354L3.232,77.475z"/>
	</g>
	<g>
		<path d="M51.768,27.525c-0.389,0.389-0.548,0.866-0.354,1.061s0.672,0.035,1.061-0.354l0.758-0.758
			c0.389-0.389,0.548-0.866,0.354-1.061s-0.672-0.035-1.061,0.354L51.768,27.525z"/>
	</g>
	<g>
		<path d="M41.768,37.525c-0.389,0.389-0.548,0.866-0.354,1.061s0.672,0.035,1.061-0.354l0.758-0.758
			c0.389-0.389,0.548-0.866,0.354-1.061s-0.672-0.035-1.061,0.354L41.768,37.525z"/>
	</g>
	<g>
		<path d="M8.232,72.475c0.389-0.389,0.548-0.866,0.354-1.061s-0.672-0.035-1.061,0.354l-0.758,0.758
			c-0.389,0.389-0.548,0.866-0.354,1.061s0.672,0.035,1.061-0.354L8.232,72.475z"/>
	</g>
	<g>
		<path d="M46.768,32.525c-0.389,0.389-0.548,0.866-0.354,1.061s0.672,0.035,1.061-0.354l0.758-0.758
			c0.389-0.389,0.548-0.866,0.354-1.061s-0.672-0.035-1.061,0.354L46.768,32.525z"/>
	</g>
	<g>
		<path d="M28.232,52.475c0.389-0.389,0.548-0.866,0.354-1.061s-0.672-0.035-1.061,0.354l-0.758,0.758
			c-0.389,0.389-0.548,0.866-0.354,1.061s0.672,0.035,1.061-0.354L28.232,52.475z"/>
	</g>
	<g>
		<path d="M31.768,47.525c-0.389,0.389-0.548,0.866-0.354,1.061s0.672,0.035,1.061-0.354l0.758-0.758
			c0.389-0.389,0.548-0.866,0.354-1.061s-0.672-0.035-1.061,0.354L31.768,47.525z"/>
	</g>
	<g>
		<path d="M23.232,57.475c0.389-0.389,0.548-0.866,0.354-1.061s-0.672-0.035-1.061,0.354l-0.758,0.758
			c-0.389,0.389-0.548,0.866-0.354,1.061s0.672,0.035,1.061-0.354L23.232,57.475z"/>
	</g>
	<g>
		<path d="M18.232,62.475c0.389-0.389,0.548-0.866,0.354-1.061s-0.672-0.035-1.061,0.354l-0.758,0.758
			c-0.389,0.389-0.548,0.866-0.354,1.061s0.672,0.035,1.061-0.354L18.232,62.475z"/>
	</g>
	<g>
		<path d="M36.768,42.525c-0.389,0.389-0.548,0.866-0.354,1.061s0.672,0.035,1.061-0.354l0.758-0.758
			c0.389-0.389,0.548-0.866,0.354-1.061s-0.672-0.035-1.061,0.354L36.768,42.525z"/>
	</g>
	<g>
		<path d="M71.768,7.525c-0.389,0.389-0.548,0.866-0.354,1.061s0.672,0.035,1.061-0.354l0.758-0.758
			c0.389-0.389,0.548-0.866,0.354-1.061s-0.672-0.035-1.061,0.354L71.768,7.525z"/>
	</g>
	<g>
		<path d="M76.768,2.525c-0.389,0.389-0.548,0.866-0.354,1.061s0.672,0.035,1.061-0.354l0.758-0.758
			c0.389-0.389,0.548-0.866,0.354-1.061s-0.672-0.035-1.061,0.354L76.768,2.525z"/>
	</g>
	<g>
		<path d="M61.768,17.525c-0.389,0.389-0.548,0.866-0.354,1.061s0.672,0.035,1.061-0.354l0.758-0.758
			c0.389-0.389,0.548-0.866,0.354-1.061s-0.672-0.035-1.061,0.354L61.768,17.525z"/>
	</g>
	<g>
		<path d="M56.768,22.525c-0.389,0.389-0.548,0.866-0.354,1.061s0.672,0.035,1.061-0.354l0.758-0.758
			c0.389-0.389,0.548-0.866,0.354-1.061s-0.672-0.035-1.061,0.354L56.768,22.525z"/>
	</g>
	<g>
		<path d="M66.768,12.525c-0.389,0.389-0.548,0.866-0.354,1.061s0.672,0.035,1.061-0.354l0.758-0.758
			c0.389-0.389,0.548-0.866,0.354-1.061s-0.672-0.035-1.061,0.354L66.768,12.525z"/>
	</g>
	<g>
		<path d="M3.232,67.475c0.389-0.389,0.548-0.866,0.354-1.061s-0.672-0.035-1.061,0.354l-0.758,0.758
			c-0.389,0.389-0.548,0.866-0.354,1.061s0.672,0.035,1.061-0.354L3.232,67.475z"/>
	</g>
	<g>
		<path d="M41.768,27.525c-0.389,0.389-0.548,0.866-0.354,1.061s0.672,0.035,1.061-0.354l0.758-0.758
			c0.389-0.389,0.548-0.866,0.354-1.061s-0.672-0.035-1.061,0.354L41.768,27.525z"/>
	</g>
	<g>
		<path d="M31.768,37.525c-0.389,0.389-0.548,0.866-0.354,1.061s0.672,0.035,1.061-0.354l0.758-0.758
			c0.389-0.389,0.548-0.866,0.354-1.061s-0.672-0.035-1.061,0.354L31.768,37.525z"/>
	</g>
	<g>
		<path d="M36.768,32.525c-0.389,0.389-0.548,0.866-0.354,1.061s0.672,0.035,1.061-0.354l0.758-0.758
			c0.389-0.389,0.548-0.866,0.354-1.061s-0.672-0.035-1.061,0.354L36.768,32.525z"/>
	</g>
	<g>
		<path d="M18.232,52.475c0.389-0.389,0.548-0.866,0.354-1.061s-0.672-0.035-1.061,0.354l-0.758,0.758
			c-0.389,0.389-0.548,0.866-0.354,1.061s0.672,0.035,1.061-0.354L18.232,52.475z"/>
	</g>
	<g>
		<path d="M21.768,47.525c-0.389,0.389-0.548,0.866-0.354,1.061s0.672,0.035,1.061-0.354l0.758-0.758
			c0.389-0.389,0.548-0.866,0.354-1.061s-0.672-0.035-1.061,0.354L21.768,47.525z"/>
	</g>
	<g>
		<path d="M13.232,57.475c0.389-0.389,0.548-0.866,0.354-1.061s-0.672-0.035-1.061,0.354l-0.758,0.758
			c-0.389,0.389-0.548,0.866-0.354,1.061s0.672,0.035,1.061-0.354L13.232,57.475z"/>
	</g>
	<g>
		<path d="M8.232,62.475c0.389-0.389,0.548-0.866,0.354-1.061s-0.672-0.035-1.061,0.354l-0.758,0.758
			c-0.389,0.389-0.548,0.866-0.354,1.061s0.672,0.035,1.061-0.354L8.232,62.475z"/>
	</g>
	<g>
		<path d="M26.768,42.525c-0.389,0.389-0.548,0.866-0.354,1.061s0.672,0.035,1.061-0.354l0.758-0.758
			c0.389-0.389,0.548-0.866,0.354-1.061s-0.672-0.035-1.061,0.354L26.768,42.525z"/>
	</g>
	<g>
		<path d="M61.768,7.525c-0.389,0.389-0.548,0.866-0.354,1.061s0.672,0.035,1.061-0.354l0.758-0.758
			c0.389-0.389,0.548-0.866,0.354-1.061s-0.672-0.035-1.061,0.354L61.768,7.525z"/>
	</g>
	<g>
		<path d="M66.768,2.525c-0.389,0.389-0.548,0.866-0.354,1.061s0.672,0.035,1.061-0.354l0.758-0.758
			c0.389-0.389,0.548-0.866,0.354-1.061s-0.672-0.035-1.061,0.354L66.768,2.525z"/>
	</g>
	<g>
		<path d="M51.768,17.525c-0.389,0.389-0.548,0.866-0.354,1.061s0.672,0.035,1.061-0.354l0.758-0.758
			c0.389-0.389,0.548-0.866,0.354-1.061s-0.672-0.035-1.061,0.354L51.768,17.525z"/>
	</g>
	<g>
		<path d="M46.768,22.525c-0.389,0.389-0.548,0.866-0.354,1.061s0.672,0.035,1.061-0.354l0.758-0.758
			c0.389-0.389,0.548-0.866,0.354-1.061s-0.672-0.035-1.061,0.354L46.768,22.525z"/>
	</g>
	<g>
		<path d="M56.768,12.525c-0.389,0.389-0.548,0.866-0.354,1.061s0.672,0.035,1.061-0.354l0.758-0.758
			c0.389-0.389,0.548-0.866,0.354-1.061s-0.672-0.035-1.061,0.354L56.768,12.525z"/>
	</g>
	<g>
		<path d="M31.768,27.525c-0.389,0.389-0.548,0.866-0.354,1.061s0.672,0.035,1.061-0.354l0.758-0.758
			c0.389-0.389,0.548-0.866,0.354-1.061s-0.672-0.035-1.061,0.354L31.768,27.525z"/>
	</g>
	<g>
		<path d="M21.768,37.525c-0.389,0.389-0.548,0.866-0.354,1.061s0.672,0.035,1.061-0.354l0.758-0.758
			c0.389-0.389,0.548-0.866,0.354-1.061s-0.672-0.035-1.061,0.354L21.768,37.525z"/>
	</g>
	<g>
		<path d="M26.768,32.525c-0.389,0.389-0.548,0.866-0.354,1.061s0.672,0.035,1.061-0.354l0.758-0.758
			c0.389-0.389,0.548-0.866,0.354-1.061s-0.672-0.035-1.061,0.354L26.768,32.525z"/>
	</g>
	<g>
		<path d="M8.232,52.475c0.389-0.389,0.548-0.866,0.354-1.061s-0.672-0.035-1.061,0.354l-0.758,0.758
			c-0.389,0.389-0.548,0.866-0.354,1.061s0.672,0.035,1.061-0.354L8.232,52.475z"/>
	</g>
	<g>
		<path d="M11.768,47.525c-0.389,0.389-0.548,0.866-0.354,1.061s0.672,0.035,1.061-0.354l0.758-0.758
			c0.389-0.389,0.548-0.866,0.354-1.061s-0.672-0.035-1.061,0.354L11.768,47.525z"/>
	</g>
	<g>
		<path d="M3.232,57.475c0.389-0.389,0.548-0.866,0.354-1.061s-0.672-0.035-1.061,0.354l-0.758,0.758
			c-0.389,0.389-0.548,0.866-0.354,1.061s0.672,0.035,1.061-0.354L3.232,57.475z"/>
	</g>
	<g>
		<path d="M16.768,42.525c-0.389,0.389-0.548,0.866-0.354,1.061s0.672,0.035,1.061-0.354l0.758-0.758
			c0.389-0.389,0.548-0.866,0.354-1.061s-0.672-0.035-1.061,0.354L16.768,42.525z"/>
	</g>
	<g>
		<path d="M51.768,7.525c-0.389,0.389-0.548,0.866-0.354,1.061s0.672,0.035,1.061-0.354l0.758-0.758
			c0.389-0.389,0.548-0.866,0.354-1.061s-0.672-0.035-1.061,0.354L51.768,7.525z"/>
	</g>
	<g>
		<path d="M56.768,2.525c-0.389,0.389-0.548,0.866-0.354,1.061s0.672,0.035,1.061-0.354l0.758-0.758
			c0.389-0.389,0.548-0.866,0.354-1.061s-0.672-0.035-1.061,0.354L56.768,2.525z"/>
	</g>
	<g>
		<path d="M41.768,17.525c-0.389,0.389-0.548,0.866-0.354,1.061s0.672,0.035,1.061-0.354l0.758-0.758
			c0.389-0.389,0.548-0.866,0.354-1.061s-0.672-0.035-1.061,0.354L41.768,17.525z"/>
	</g>
	<g>
		<path d="M36.768,22.525c-0.389,0.389-0.548,0.866-0.354,1.061s0.672,0.035,1.061-0.354l0.758-0.758
			c0.389-0.389,0.548-0.866,0.354-1.061s-0.672-0.035-1.061,0.354L36.768,22.525z"/>
	</g>
	<g>
		<path d="M46.768,12.525c-0.389,0.389-0.548,0.866-0.354,1.061s0.672,0.035,1.061-0.354l0.758-0.758
			c0.389-0.389,0.548-0.866,0.354-1.061s-0.672-0.035-1.061,0.354L46.768,12.525z"/>
	</g>
	<g>
		<path d="M21.768,27.525c-0.389,0.389-0.548,0.866-0.354,1.061s0.672,0.035,1.061-0.354l0.758-0.758
			c0.389-0.389,0.548-0.866,0.354-1.061s-0.672-0.035-1.061,0.354L21.768,27.525z"/>
	</g>
	<g>
		<path d="M11.768,37.525c-0.389,0.389-0.548,0.866-0.354,1.061s0.672,0.035,1.061-0.354l0.758-0.758
			c0.389-0.389,0.548-0.866,0.354-1.061s-0.672-0.035-1.061,0.354L11.768,37.525z"/>
	</g>
	<g>
		<path d="M16.768,32.525c-0.389,0.389-0.548,0.866-0.354,1.061s0.672,0.035,1.061-0.354l0.758-0.758
			c0.389-0.389,0.548-0.866,0.354-1.061s-0.672-0.035-1.061,0.354L16.768,32.525z"/>
	</g>
	<g>
		<path d="M1.768,47.525c-0.389,0.389-0.548,0.866-0.354,1.061s0.672,0.035,1.061-0.354l0.758-0.758
			c0.389-0.389,0.548-0.866,0.354-1.061s-0.672-0.035-1.061,0.354L1.768,47.525z"/>
	</g>
	<g>
		<path d="M6.768,42.525c-0.389,0.389-0.548,0.866-0.354,1.061s0.672,0.035,1.061-0.354l0.758-0.758
			c0.389-0.389,0.548-0.866,0.354-1.061s-0.672-0.035-1.061,0.354L6.768,42.525z"/>
	</g>
	<g>
		<path d="M41.768,7.525c-0.389,0.389-0.548,0.866-0.354,1.061s0.672,0.035,1.061-0.354l0.758-0.758
			c0.389-0.389,0.548-0.866,0.354-1.061s-0.672-0.035-1.061,0.354L41.768,7.525z"/>
	</g>
	<g>
		<path d="M46.768,2.525c-0.389,0.389-0.548,0.866-0.354,1.061s0.672,0.035,1.061-0.354l0.758-0.758
			c0.389-0.389,0.548-0.866,0.354-1.061s-0.672-0.035-1.061,0.354L46.768,2.525z"/>
	</g>
	<g>
		<path d="M31.768,17.525c-0.389,0.389-0.548,0.866-0.354,1.061s0.672,0.035,1.061-0.354l0.758-0.758
			c0.389-0.389,0.548-0.866,0.354-1.061s-0.672-0.035-1.061,0.354L31.768,17.525z"/>
	</g>
	<g>
		<path d="M26.768,22.525c-0.389,0.389-0.548,0.866-0.354,1.061s0.672,0.035,1.061-0.354l0.758-0.758
			c0.389-0.389,0.548-0.866,0.354-1.061s-0.672-0.035-1.061,0.354L26.768,22.525z"/>
	</g>
	<g>
		<path d="M36.768,12.525c-0.389,0.389-0.548,0.866-0.354,1.061s0.672,0.035,1.061-0.354l0.758-0.758
			c0.389-0.389,0.548-0.866,0.354-1.061s-0.672-0.035-1.061,0.354L36.768,12.525z"/>
	</g>
	<g>
		<path d="M11.768,27.525c-0.389,0.389-0.548,0.866-0.354,1.061s0.672,0.035,1.061-0.354l0.758-0.758
			c0.389-0.389,0.548-0.866,0.354-1.061s-0.672-0.035-1.061,0.354L11.768,27.525z"/>
	</g>
	<g>
		<path d="M1.768,37.525c-0.389,0.389-0.548,0.866-0.354,1.061s0.672,0.035,1.061-0.354l0.758-0.758
			c0.389-0.389,0.548-0.866,0.354-1.061s-0.672-0.035-1.061,0.354L1.768,37.525z"/>
	</g>
	<g>
		<path d="M6.768,32.525c-0.389,0.389-0.548,0.866-0.354,1.061s0.672,0.035,1.061-0.354l0.758-0.758
			c0.389-0.389,0.548-0.866,0.354-1.061s-0.672-0.035-1.061,0.354L6.768,32.525z"/>
	</g>
	<g>
		<path d="M31.768,7.525c-0.389,0.389-0.548,0.866-0.354,1.061s0.672,0.035,1.061-0.354l0.758-0.758
			c0.389-0.389,0.548-0.866,0.354-1.061s-0.672-0.035-1.061,0.354L31.768,7.525z"/>
	</g>
	<g>
		<path d="M36.768,2.525c-0.389,0.389-0.548,0.866-0.354,1.061s0.672,0.035,1.061-0.354l0.758-0.758
			c0.389-0.389,0.548-0.866,0.354-1.061s-0.672-0.035-1.061,0.354L36.768,2.525z"/>
	</g>
	<g>
		<path d="M21.768,17.525c-0.389,0.389-0.548,0.866-0.354,1.061s0.672,0.035,1.061-0.354l0.758-0.758
			c0.389-0.389,0.548-0.866,0.354-1.061s-0.672-0.035-1.061,0.354L21.768,17.525z"/>
	</g>
	<g>
		<path d="M16.768,22.525c-0.389,0.389-0.548,0.866-0.354,1.061s0.672,0.035,1.061-0.354l0.758-0.758
			c0.389-0.389,0.548-0.866,0.354-1.061s-0.672-0.035-1.061,0.354L16.768,22.525z"/>
	</g>
	<g>
		<path d="M26.768,12.525c-0.389,0.389-0.548,0.866-0.354,1.061s0.672,0.035,1.061-0.354l0.758-0.758
			c0.389-0.389,0.548-0.866,0.354-1.061s-0.672-0.035-1.061,0.354L26.768,12.525z"/>
	</g>
	<g>
		<path d="M1.768,27.525c-0.389,0.389-0.548,0.866-0.354,1.061s0.672,0.035,1.061-0.354l0.758-0.758
			c0.389-0.389,0.548-0.866,0.354-1.061s-0.672-0.035-1.061,0.354L1.768,27.525z"/>
	</g>
	<g>
		<path d="M21.768,7.525c-0.389,0.389-0.548,0.866-0.354,1.061s0.672,0.035,1.061-0.354l0.758-0.758
			c0.389-0.389,0.548-0.866,0.354-1.061s-0.672-0.035-1.061,0.354L21.768,7.525z"/>
	</g>
	<g>
		<path d="M26.768,2.525c-0.389,0.389-0.548,0.866-0.354,1.061s0.672,0.035,1.061-0.354l0.758-0.758
			c0.389-0.389,0.548-0.866,0.354-1.061s-0.672-0.035-1.061,0.354L26.768,2.525z"/>
	</g>
	<g>
		<path d="M11.768,17.525c-0.389,0.389-0.548,0.866-0.354,1.061s0.672,0.035,1.061-0.354l0.758-0.758
			c0.389-0.389,0.548-0.866,0.354-1.061s-0.672-0.035-1.061,0.354L11.768,17.525z"/>
	</g>
	<g>
		<path d="M6.768,22.525c-0.389,0.389-0.548,0.866-0.354,1.061s0.672,0.035,1.061-0.354l0.758-0.758
			c0.389-0.389,0.548-0.866,0.354-1.061s-0.672-0.035-1.061,0.354L6.768,22.525z"/>
	</g>
	<g>
		<path d="M16.768,12.525c-0.389,0.389-0.548,0.866-0.354,1.061s0.672,0.035,1.061-0.354l0.758-0.758
			c0.389-0.389,0.548-0.866,0.354-1.061s-0.672-0.035-1.061,0.354L16.768,12.525z"/>
	</g>
	<g>
		<path d="M11.768,7.525c-0.389,0.389-0.548,0.866-0.354,1.061s0.672,0.035,1.061-0.354l0.758-0.758
			c0.389-0.389,0.548-0.866,0.354-1.061s-0.672-0.035-1.061,0.354L11.768,7.525z"/>
	</g>
	<g>
		<path d="M16.768,2.525c-0.389,0.389-0.548,0.866-0.354,1.061s0.672,0.035,1.061-0.354l0.758-0.758
			c0.389-0.389,0.548-0.866,0.354-1.061s-0.672-0.035-1.061,0.354L16.768,2.525z"/>
	</g>
	<g>
		<path d="M1.768,17.525c-0.389,0.389-0.548,0.866-0.354,1.061s0.672,0.035,1.061-0.354l0.758-0.758
			c0.389-0.389,0.548-0.866,0.354-1.061s-0.672-0.035-1.061,0.354L1.768,17.525z"/>
	</g>
	<g>
		<path d="M6.768,12.525c-0.389,0.389-0.548,0.866-0.354,1.061s0.672,0.035,1.061-0.354l0.758-0.758
			c0.389-0.389,0.548-0.866,0.354-1.061s-0.672-0.035-1.061,0.354L6.768,12.525z"/>
	</g>
	<g>
		<path d="M1.768,7.525C1.379,7.914,1.22,8.392,1.414,8.586s0.672,0.035,1.061-0.354l0.758-0.758
			C3.621,7.086,3.78,6.608,3.586,6.414S2.914,6.379,2.525,6.768L1.768,7.525z"/>
	</g>
	<g>
		<path d="M6.768,2.525C6.379,2.914,6.22,3.392,6.414,3.586s0.672,0.035,1.061-0.354l0.758-0.758
			C8.621,2.086,8.78,1.608,8.586,1.414S7.914,1.379,7.525,1.768L6.768,2.525z"/>
	</g>
	<g>
		<path d="M43.232,67.475c0.389-0.389,0.548-0.866,0.354-1.061s-0.672-0.035-1.061,0.354l-0.758,0.758
			c-0.389,0.389-0.548,0.866-0.354,1.061s0.672,0.035,1.061-0.354L43.232,67.475z"/>
	</g>
	<g>
		<path d="M33.232,77.475c0.389-0.389,0.548-0.866,0.354-1.061s-0.672-0.035-1.061,0.354l-0.758,0.758
			c-0.389,0.389-0.548,0.866-0.354,1.061s0.672,0.035,1.061-0.354L33.232,77.475z"/>
	</g>
	<g>
		<path d="M81.768,27.525c-0.389,0.389-0.548,0.866-0.354,1.061s0.672,0.035,1.061-0.354l0.758-0.758
			c0.389-0.389,0.548-0.866,0.354-1.061s-0.672-0.035-1.061,0.354L81.768,27.525z"/>
	</g>
	<g>
		<path d="M71.768,37.525c-0.389,0.389-0.548,0.866-0.354,1.061s0.672,0.035,1.061-0.354l0.758-0.758
			c0.389-0.389,0.548-0.866,0.354-1.061s-0.672-0.035-1.061,0.354L71.768,37.525z"/>
	</g>
	<g>
		<path d="M38.232,72.475c0.389-0.389,0.548-0.866,0.354-1.061s-0.672-0.035-1.061,0.354l-0.758,0.758
			c-0.389,0.389-0.548,0.866-0.354,1.061s0.672,0.035,1.061-0.354L38.232,72.475z"/>
	</g>
	<g>
		<path d="M76.768,32.525c-0.389,0.389-0.548,0.866-0.354,1.061s0.672,0.035,1.061-0.354l0.758-0.758
			c0.389-0.389,0.548-0.866,0.354-1.061s-0.672-0.035-1.061,0.354L76.768,32.525z"/>
	</g>
	<g>
		<path d="M58.232,52.475c0.389-0.389,0.548-0.866,0.354-1.061s-0.672-0.035-1.061,0.354l-0.758,0.758
			c-0.389,0.389-0.548,0.866-0.354,1.061s0.672,0.035,1.061-0.354L58.232,52.475z"/>
	</g>
	<g>
		<path d="M61.768,47.525c-0.389,0.389-0.548,0.866-0.354,1.061s0.672,0.035,1.061-0.354l0.758-0.758
			c0.389-0.389,0.548-0.866,0.354-1.061s-0.672-0.035-1.061,0.354L61.768,47.525z"/>
	</g>
	<g>
		<path d="M53.232,57.475c0.389-0.389,0.548-0.866,0.354-1.061s-0.672-0.035-1.061,0.354l-0.758,0.758
			c-0.389,0.389-0.548,0.866-0.354,1.061s0.672,0.035,1.061-0.354L53.232,57.475z"/>
	</g>
	<g>
		<path d="M48.232,62.475c0.389-0.389,0.548-0.866,0.354-1.061s-0.672-0.035-1.061,0.354l-0.758,0.758
			c-0.389,0.389-0.548,0.866-0.354,1.061s0.672,0.035,1.061-0.354L48.232,62.475z"/>
	</g>
	<g>
		<path d="M66.768,42.525c-0.389,0.389-0.548,0.866-0.354,1.061s0.672,0.035,1.061-0.354l0.758-0.758
			c0.389-0.389,0.548-0.866,0.354-1.061s-0.672-0.035-1.061,0.354L66.768,42.525z"/>
	</g>
	<g>
		<path d="M28.232,82.475c0.389-0.389,0.548-0.866,0.354-1.061s-0.672-0.035-1.061,0.354l-0.758,0.758
			c-0.389,0.389-0.548,0.866-0.354,1.061s0.672,0.035,1.061-0.354L28.232,82.475z"/>
	</g>
	<g>
		<path d="M13.232,97.475c0.389-0.389,0.548-0.866,0.354-1.061s-0.672-0.035-1.061,0.354l-0.758,0.758
			c-0.389,0.389-0.548,0.866-0.354,1.061s0.672,0.035,1.061-0.354L13.232,97.475z"/>
	</g>
	<g>
		<path d="M91.768,17.525c-0.389,0.389-0.548,0.866-0.354,1.061s0.672,0.035,1.061-0.354l0.758-0.758
			c0.389-0.389,0.548-0.866,0.354-1.061s-0.672-0.035-1.061,0.354L91.768,17.525z"/>
	</g>
	<g>
		<path d="M23.232,87.475c0.389-0.389,0.548-0.866,0.354-1.061s-0.672-0.035-1.061,0.354l-0.758,0.758
			c-0.389,0.389-0.548,0.866-0.354,1.061s0.672,0.035,1.061-0.354L23.232,87.475z"/>
	</g>
	<g>
		<path d="M18.232,92.475c0.389-0.389,0.548-0.866,0.354-1.061s-0.672-0.035-1.061,0.354l-0.758,0.758
			c-0.389,0.389-0.548,0.866-0.354,1.061s0.672,0.035,1.061-0.354L18.232,92.475z"/>
	</g>
	<g>
		<path d="M86.768,22.525c-0.389,0.389-0.548,0.866-0.354,1.061s0.672,0.035,1.061-0.354l0.758-0.758
			c0.389-0.389,0.548-0.866,0.354-1.061s-0.672-0.035-1.061,0.354L86.768,22.525z"/>
	</g>
	<g>
		<path d="M96.768,12.525c-0.389,0.389-0.548,0.866-0.354,1.061s0.672,0.035,1.061-0.354l0.758-0.758
			c0.389-0.389,0.548-0.866,0.354-1.061s-0.672-0.035-1.061,0.354L96.768,12.525z"/>
	</g>
	<g>
		<path d="M53.232,67.475c0.389-0.389,0.548-0.866,0.354-1.061s-0.672-0.035-1.061,0.354l-0.758,0.758
			c-0.389,0.389-0.548,0.866-0.354,1.061s0.672,0.035,1.061-0.354L53.232,67.475z"/>
	</g>
	<g>
		<path d="M43.232,77.475c0.389-0.389,0.548-0.866,0.354-1.061s-0.672-0.035-1.061,0.354l-0.758,0.758
			c-0.389,0.389-0.548,0.866-0.354,1.061s0.672,0.035,1.061-0.354L43.232,77.475z"/>
	</g>
	<g>
		<path d="M91.768,27.525c-0.389,0.389-0.548,0.866-0.354,1.061s0.672,0.035,1.061-0.354l0.758-0.758
			c0.389-0.389,0.548-0.866,0.354-1.061s-0.672-0.035-1.061,0.354L91.768,27.525z"/>
	</g>
	<g>
		<path d="M81.768,37.525c-0.389,0.389-0.548,0.866-0.354,1.061s0.672,0.035,1.061-0.354l0.758-0.758
			c0.389-0.389,0.548-0.866,0.354-1.061s-0.672-0.035-1.061,0.354L81.768,37.525z"/>
	</g>
	<g>
		<path d="M48.232,72.475c0.389-0.389,0.548-0.866,0.354-1.061s-0.672-0.035-1.061,0.354l-0.758,0.758
			c-0.389,0.389-0.548,0.866-0.354,1.061s0.672,0.035,1.061-0.354L48.232,72.475z"/>
	</g>
	<g>
		<path d="M86.768,32.525c-0.389,0.389-0.548,0.866-0.354,1.061s0.672,0.035,1.061-0.354l0.758-0.758
			c0.389-0.389,0.548-0.866,0.354-1.061s-0.672-0.035-1.061,0.354L86.768,32.525z"/>
	</g>
	<g>
		<path d="M68.232,52.475c0.389-0.389,0.548-0.866,0.354-1.061s-0.672-0.035-1.061,0.354l-0.758,0.758
			c-0.389,0.389-0.548,0.866-0.354,1.061s0.672,0.035,1.061-0.354L68.232,52.475z"/>
	</g>
	<g>
		<path d="M71.768,47.525c-0.389,0.389-0.548,0.866-0.354,1.061s0.672,0.035,1.061-0.354l0.758-0.758
			c0.389-0.389,0.548-0.866,0.354-1.061s-0.672-0.035-1.061,0.354L71.768,47.525z"/>
	</g>
	<g>
		<path d="M63.232,57.475c0.389-0.389,0.548-0.866,0.354-1.061s-0.672-0.035-1.061,0.354l-0.758,0.758
			c-0.389,0.389-0.548,0.866-0.354,1.061s0.672,0.035,1.061-0.354L63.232,57.475z"/>
	</g>
	<g>
		<path d="M58.232,62.475c0.389-0.389,0.548-0.866,0.354-1.061s-0.672-0.035-1.061,0.354l-0.758,0.758
			c-0.389,0.389-0.548,0.866-0.354,1.061s0.672,0.035,1.061-0.354L58.232,62.475z"/>
	</g>
	<g>
		<path d="M76.768,42.525c-0.389,0.389-0.548,0.866-0.354,1.061s0.672,0.035,1.061-0.354l0.758-0.758
			c0.389-0.389,0.548-0.866,0.354-1.061s-0.672-0.035-1.061,0.354L76.768,42.525z"/>
	</g>
	<g>
		<path d="M38.232,82.475c0.389-0.389,0.548-0.866,0.354-1.061s-0.672-0.035-1.061,0.354l-0.758,0.758
			c-0.389,0.389-0.548,0.866-0.354,1.061s0.672,0.035,1.061-0.354L38.232,82.475z"/>
	</g>
	<g>
		<path d="M23.232,97.475c0.389-0.389,0.548-0.866,0.354-1.061s-0.672-0.035-1.061,0.354l-0.758,0.758
			c-0.389,0.389-0.548,0.866-0.354,1.061s0.672,0.035,1.061-0.354L23.232,97.475z"/>
	</g>
	<g>
		<path d="M33.232,87.475c0.389-0.389,0.548-0.866,0.354-1.061s-0.672-0.035-1.061,0.354l-0.758,0.758
			c-0.389,0.389-0.548,0.866-0.354,1.061s0.672,0.035,1.061-0.354L33.232,87.475z"/>
	</g>
	<g>
		<path d="M28.232,92.475c0.389-0.389,0.548-0.866,0.354-1.061s-0.672-0.035-1.061,0.354l-0.758,0.758
			c-0.389,0.389-0.548,0.866-0.354,1.061s0.672,0.035,1.061-0.354L28.232,92.475z"/>
	</g>
	<g>
		<path d="M96.768,22.525c-0.389,0.389-0.548,0.866-0.354,1.061s0.672,0.035,1.061-0.354l0.758-0.758
			c0.389-0.389,0.548-0.866,0.354-1.061s-0.672-0.035-1.061,0.354L96.768,22.525z"/>
	</g>
	<g>
		<path d="M63.232,67.475c0.389-0.389,0.548-0.866,0.354-1.061s-0.672-0.035-1.061,0.354l-0.758,0.758
			c-0.389,0.389-0.548,0.866-0.354,1.061s0.672,0.035,1.061-0.354L63.232,67.475z"/>
	</g>
	<g>
		<path d="M53.232,77.475c0.389-0.389,0.548-0.866,0.354-1.061s-0.672-0.035-1.061,0.354l-0.758,0.758
			c-0.389,0.389-0.548,0.866-0.354,1.061s0.672,0.035,1.061-0.354L53.232,77.475z"/>
	</g>
	<g>
		<path d="M91.768,37.525c-0.389,0.389-0.548,0.866-0.354,1.061s0.672,0.035,1.061-0.354l0.758-0.758
			c0.389-0.389,0.548-0.866,0.354-1.061s-0.672-0.035-1.061,0.354L91.768,37.525z"/>
	</g>
	<g>
		<path d="M58.232,72.475c0.389-0.389,0.548-0.866,0.354-1.061s-0.672-0.035-1.061,0.354l-0.758,0.758
			c-0.389,0.389-0.548,0.866-0.354,1.061s0.672,0.035,1.061-0.354L58.232,72.475z"/>
	</g>
	<g>
		<path d="M96.768,32.525c-0.389,0.389-0.548,0.866-0.354,1.061s0.672,0.035,1.061-0.354l0.758-0.758
			c0.389-0.389,0.548-0.866,0.354-1.061s-0.672-0.035-1.061,0.354L96.768,32.525z"/>
	</g>
	<g>
		<path d="M78.232,52.475c0.389-0.389,0.548-0.866,0.354-1.061s-0.672-0.035-1.061,0.354l-0.758,0.758
			c-0.389,0.389-0.548,0.866-0.354,1.061s0.672,0.035,1.061-0.354L78.232,52.475z"/>
	</g>
	<g>
		<path d="M81.768,47.525c-0.389,0.389-0.548,0.866-0.354,1.061s0.672,0.035,1.061-0.354l0.758-0.758
			c0.389-0.389,0.548-0.866,0.354-1.061s-0.672-0.035-1.061,0.354L81.768,47.525z"/>
	</g>
	<g>
		<path d="M73.232,57.475c0.389-0.389,0.548-0.866,0.354-1.061s-0.672-0.035-1.061,0.354l-0.758,0.758
			c-0.389,0.389-0.548,0.866-0.354,1.061s0.672,0.035,1.061-0.354L73.232,57.475z"/>
	</g>
	<g>
		<path d="M68.232,62.475c0.389-0.389,0.548-0.866,0.354-1.061s-0.672-0.035-1.061,0.354l-0.758,0.758
			c-0.389,0.389-0.548,0.866-0.354,1.061s0.672,0.035,1.061-0.354L68.232,62.475z"/>
	</g>
	<g>
		<path d="M86.768,42.525c-0.389,0.389-0.548,0.866-0.354,1.061s0.672,0.035,1.061-0.354l0.758-0.758
			c0.389-0.389,0.548-0.866,0.354-1.061s-0.672-0.035-1.061,0.354L86.768,42.525z"/>
	</g>
	<g>
		<path d="M48.232,82.475c0.389-0.389,0.548-0.866,0.354-1.061s-0.672-0.035-1.061,0.354l-0.758,0.758
			c-0.389,0.389-0.548,0.866-0.354,1.061s0.672,0.035,1.061-0.354L48.232,82.475z"/>
	</g>
	<g>
		<path d="M33.232,97.475c0.389-0.389,0.548-0.866,0.354-1.061s-0.672-0.035-1.061,0.354l-0.758,0.758
			c-0.389,0.389-0.548,0.866-0.354,1.061s0.672,0.035,1.061-0.354L33.232,97.475z"/>
	</g>
	<g>
		<path d="M43.232,87.475c0.389-0.389,0.548-0.866,0.354-1.061s-0.672-0.035-1.061,0.354l-0.758,0.758
			c-0.389,0.389-0.548,0.866-0.354,1.061s0.672,0.035,1.061-0.354L43.232,87.475z"/>
	</g>
	<g>
		<path d="M38.232,92.475c0.389-0.389,0.548-0.866,0.354-1.061s-0.672-0.035-1.061,0.354l-0.758,0.758
			c-0.389,0.389-0.548,0.866-0.354,1.061s0.672,0.035,1.061-0.354L38.232,92.475z"/>
	</g>
	<g>
		<path d="M73.232,67.475c0.389-0.389,0.548-0.866,0.354-1.061s-0.672-0.035-1.061,0.354l-0.758,0.758
			c-0.389,0.389-0.548,0.866-0.354,1.061s0.672,0.035,1.061-0.354L73.232,67.475z"/>
	</g>
	<g>
		<path d="M63.232,77.475c0.389-0.389,0.548-0.866,0.354-1.061s-0.672-0.035-1.061,0.354l-0.758,0.758
			c-0.389,0.389-0.548,0.866-0.354,1.061s0.672,0.035,1.061-0.354L63.232,77.475z"/>
	</g>
	<g>
		<path d="M68.232,72.475c0.389-0.389,0.548-0.866,0.354-1.061s-0.672-0.035-1.061,0.354l-0.758,0.758
			c-0.389,0.389-0.548,0.866-0.354,1.061s0.672,0.035,1.061-0.354L68.232,72.475z"/>
	</g>
	<g>
		<path d="M88.232,52.475c0.389-0.389,0.548-0.866,0.354-1.061s-0.672-0.035-1.061,0.354l-0.758,0.758
			c-0.389,0.389-0.548,0.866-0.354,1.061s0.672,0.035,1.061-0.354L88.232,52.475z"/>
	</g>
	<g>
		<path d="M91.768,47.525c-0.389,0.389-0.548,0.866-0.354,1.061s0.672,0.035,1.061-0.354l0.758-0.758
			c0.389-0.389,0.548-0.866,0.354-1.061s-0.672-0.035-1.061,0.354L91.768,47.525z"/>
	</g>
	<g>
		<path d="M83.232,57.475c0.389-0.389,0.548-0.866,0.354-1.061s-0.672-0.035-1.061,0.354l-0.758,0.758
			c-0.389,0.389-0.548,0.866-0.354,1.061s0.672,0.035,1.061-0.354L83.232,57.475z"/>
	</g>
	<g>
		<path d="M78.232,62.475c0.389-0.389,0.548-0.866,0.354-1.061s-0.672-0.035-1.061,0.354l-0.758,0.758
			c-0.389,0.389-0.548,0.866-0.354,1.061s0.672,0.035,1.061-0.354L78.232,62.475z"/>
	</g>
	<g>
		<path d="M96.768,42.525c-0.389,0.389-0.548,0.866-0.354,1.061s0.672,0.035,1.061-0.354l0.758-0.758
			c0.389-0.389,0.548-0.866,0.354-1.061s-0.672-0.035-1.061,0.354L96.768,42.525z"/>
	</g>
	<g>
		<path d="M58.232,82.475c0.389-0.389,0.548-0.866,0.354-1.061s-0.672-0.035-1.061,0.354l-0.758,0.758
			c-0.389,0.389-0.548,0.866-0.354,1.061s0.672,0.035,1.061-0.354L58.232,82.475z"/>
	</g>
	<g>
		<path d="M43.232,97.475c0.389-0.389,0.548-0.866,0.354-1.061s-0.672-0.035-1.061,0.354l-0.758,0.758
			c-0.389,0.389-0.548,0.866-0.354,1.061s0.672,0.035,1.061-0.354L43.232,97.475z"/>
	</g>
	<g>
		<path d="M53.232,87.475c0.389-0.389,0.548-0.866,0.354-1.061s-0.672-0.035-1.061,0.354l-0.758,0.758
			c-0.389,0.389-0.548,0.866-0.354,1.061s0.672,0.035,1.061-0.354L53.232,87.475z"/>
	</g>
	<g>
		<path d="M48.232,92.475c0.389-0.389,0.548-0.866,0.354-1.061s-0.672-0.035-1.061,0.354l-0.758,0.758
			c-0.389,0.389-0.548,0.866-0.354,1.061s0.672,0.035,1.061-0.354L48.232,92.475z"/>
	</g>
	<g>
		<path d="M83.232,67.475c0.389-0.389,0.548-0.866,0.354-1.061s-0.672-0.035-1.061,0.354l-0.758,0.758
			c-0.389,0.389-0.548,0.866-0.354,1.061s0.672,0.035,1.061-0.354L83.232,67.475z"/>
	</g>
	<g>
		<path d="M73.232,77.475c0.389-0.389,0.548-0.866,0.354-1.061s-0.672-0.035-1.061,0.354l-0.758,0.758
			c-0.389,0.389-0.548,0.866-0.354,1.061s0.672,0.035,1.061-0.354L73.232,77.475z"/>
	</g>
	<g>
		<path d="M78.232,72.475c0.389-0.389,0.548-0.866,0.354-1.061s-0.672-0.035-1.061,0.354l-0.758,0.758
			c-0.389,0.389-0.548,0.866-0.354,1.061s0.672,0.035,1.061-0.354L78.232,72.475z"/>
	</g>
	<g>
		<path d="M98.232,52.475c0.389-0.389,0.548-0.866,0.354-1.061s-0.672-0.035-1.061,0.354l-0.758,0.758
			c-0.389,0.389-0.548,0.866-0.354,1.061s0.672,0.035,1.061-0.354L98.232,52.475z"/>
	</g>
	<g>
		<path d="M93.232,57.475c0.389-0.389,0.548-0.866,0.354-1.061s-0.672-0.035-1.061,0.354l-0.758,0.758
			c-0.389,0.389-0.548,0.866-0.354,1.061s0.672,0.035,1.061-0.354L93.232,57.475z"/>
	</g>
	<g>
		<path d="M88.232,62.475c0.389-0.389,0.548-0.866,0.354-1.061s-0.672-0.035-1.061,0.354l-0.758,0.758
			c-0.389,0.389-0.548,0.866-0.354,1.061s0.672,0.035,1.061-0.354L88.232,62.475z"/>
	</g>
	<g>
		<path d="M68.232,82.475c0.389-0.389,0.548-0.866,0.354-1.061s-0.672-0.035-1.061,0.354l-0.758,0.758
			c-0.389,0.389-0.548,0.866-0.354,1.061s0.672,0.035,1.061-0.354L68.232,82.475z"/>
	</g>
	<g>
		<path d="M53.232,97.475c0.389-0.389,0.548-0.866,0.354-1.061s-0.672-0.035-1.061,0.354l-0.758,0.758
			c-0.389,0.389-0.548,0.866-0.354,1.061s0.672,0.035,1.061-0.354L53.232,97.475z"/>
	</g>
	<g>
		<path d="M63.232,87.475c0.389-0.389,0.548-0.866,0.354-1.061s-0.672-0.035-1.061,0.354l-0.758,0.758
			c-0.389,0.389-0.548,0.866-0.354,1.061s0.672,0.035,1.061-0.354L63.232,87.475z"/>
	</g>
	<g>
		<path d="M58.232,92.475c0.389-0.389,0.548-0.866,0.354-1.061s-0.672-0.035-1.061,0.354l-0.758,0.758
			c-0.389,0.389-0.548,0.866-0.354,1.061s0.672,0.035,1.061-0.354L58.232,92.475z"/>
	</g>
	<g>
		<path d="M93.232,67.475c0.389-0.389,0.548-0.866,0.354-1.061s-0.672-0.035-1.061,0.354l-0.758,0.758
			c-0.389,0.389-0.548,0.866-0.354,1.061s0.672,0.035,1.061-0.354L93.232,67.475z"/>
	</g>
	<g>
		<path d="M83.232,77.475c0.389-0.389,0.548-0.866,0.354-1.061s-0.672-0.035-1.061,0.354l-0.758,0.758
			c-0.389,0.389-0.548,0.866-0.354,1.061s0.672,0.035,1.061-0.354L83.232,77.475z"/>
	</g>
	<g>
		<path d="M88.232,72.475c0.389-0.389,0.548-0.866,0.354-1.061s-0.672-0.035-1.061,0.354l-0.758,0.758
			c-0.389,0.389-0.548,0.866-0.354,1.061s0.672,0.035,1.061-0.354L88.232,72.475z"/>
	</g>
	<g>
		<path d="M98.232,62.475c0.389-0.389,0.548-0.866,0.354-1.061s-0.672-0.035-1.061,0.354l-0.758,0.758
			c-0.389,0.389-0.548,0.866-0.354,1.061s0.672,0.035,1.061-0.354L98.232,62.475z"/>
	</g>
	<g>
		<path d="M78.232,82.475c0.389-0.389,0.548-0.866,0.354-1.061s-0.672-0.035-1.061,0.354l-0.758,0.758
			c-0.389,0.389-0.548,0.866-0.354,1.061s0.672,0.035,1.061-0.354L78.232,82.475z"/>
	</g>
	<g>
		<path d="M63.232,97.475c0.389-0.389,0.548-0.866,0.354-1.061s-0.672-0.035-1.061,0.354l-0.758,0.758
			c-0.389,0.389-0.548,0.866-0.354,1.061s0.672,0.035,1.061-0.354L63.232,97.475z"/>
	</g>
	<g>
		<path d="M73.232,87.475c0.389-0.389,0.548-0.866,0.354-1.061s-0.672-0.035-1.061,0.354l-0.758,0.758
			c-0.389,0.389-0.548,0.866-0.354,1.061s0.672,0.035,1.061-0.354L73.232,87.475z"/>
	</g>
	<g>
		<path d="M68.232,92.475c0.389-0.389,0.548-0.866,0.354-1.061s-0.672-0.035-1.061,0.354l-0.758,0.758
			c-0.389,0.389-0.548,0.866-0.354,1.061s0.672,0.035,1.061-0.354L68.232,92.475z"/>
	</g>
	<g>
		<path d="M93.232,77.475c0.389-0.389,0.548-0.866,0.354-1.061s-0.672-0.035-1.061,0.354l-0.758,0.758
			c-0.389,0.389-0.548,0.866-0.354,1.061s0.672,0.035,1.061-0.354L93.232,77.475z"/>
	</g>
	<g>
		<path d="M98.232,72.475c0.389-0.389,0.548-0.866,0.354-1.061s-0.672-0.035-1.061,0.354l-0.758,0.758
			c-0.389,0.389-0.548,0.866-0.354,1.061s0.672,0.035,1.061-0.354L98.232,72.475z"/>
	</g>
	<g>
		<path d="M88.232,82.475c0.389-0.389,0.548-0.866,0.354-1.061s-0.672-0.035-1.061,0.354l-0.758,0.758
			c-0.389,0.389-0.548,0.866-0.354,1.061s0.672,0.035,1.061-0.354L88.232,82.475z"/>
	</g>
	<g>
		<path d="M73.232,97.475c0.389-0.389,0.548-0.866,0.354-1.061s-0.672-0.035-1.061,0.354l-0.758,0.758
			c-0.389,0.389-0.548,0.866-0.354,1.061s0.672,0.035,1.061-0.354L73.232,97.475z"/>
	</g>
	<g>
		<path d="M83.232,87.475c0.389-0.389,0.548-0.866,0.354-1.061s-0.672-0.035-1.061,0.354l-0.758,0.758
			c-0.389,0.389-0.548,0.866-0.354,1.061s0.672,0.035,1.061-0.354L83.232,87.475z"/>
	</g>
	<g>
		<path d="M78.232,92.475c0.389-0.389,0.548-0.866,0.354-1.061s-0.672-0.035-1.061,0.354l-0.758,0.758
			c-0.389,0.389-0.548,0.866-0.354,1.061s0.672,0.035,1.061-0.354L78.232,92.475z"/>
	</g>
	<g>
		<path d="M98.232,82.475c0.389-0.389,0.548-0.866,0.354-1.061s-0.672-0.035-1.061,0.354l-0.758,0.758
			c-0.389,0.389-0.548,0.866-0.354,1.061s0.672,0.035,1.061-0.354L98.232,82.475z"/>
	</g>
	<g>
		<path d="M83.232,97.475c0.389-0.389,0.548-0.866,0.354-1.061s-0.672-0.035-1.061,0.354l-0.758,0.758
			c-0.389,0.389-0.548,0.866-0.354,1.061s0.672,0.035,1.061-0.354L83.232,97.475z"/>
	</g>
	<g>
		<path d="M93.232,87.475c0.389-0.389,0.548-0.866,0.354-1.061s-0.672-0.035-1.061,0.354l-0.758,0.758
			c-0.389,0.389-0.548,0.866-0.354,1.061s0.672,0.035,1.061-0.354L93.232,87.475z"/>
	</g>
	<g>
		<path d="M88.232,92.475c0.389-0.389,0.548-0.866,0.354-1.061s-0.672-0.035-1.061,0.354l-0.758,0.758
			c-0.389,0.389-0.548,0.866-0.354,1.061s0.672,0.035,1.061-0.354L88.232,92.475z"/>
	</g>
	<g>
		<path d="M93.232,97.475c0.389-0.389,0.548-0.866,0.354-1.061s-0.672-0.035-1.061,0.354l-0.758,0.758
			c-0.389,0.389-0.548,0.866-0.354,1.061s0.672,0.035,1.061-0.354L93.232,97.475z"/>
	</g>
	<g>
		<path d="M98.232,92.475c0.389-0.389,0.548-0.866,0.354-1.061s-0.672-0.035-1.061,0.354l-0.758,0.758
			c-0.389,0.389-0.548,0.866-0.354,1.061s0.672,0.035,1.061-0.354L98.232,92.475z"/>
	</g>
</g>
<g opacity="0.05">
	<g>
		<path d="M67.475,66.768c-0.389-0.389-0.866-0.548-1.061-0.354s-0.035,0.672,0.354,1.061l0.758,0.758
			c0.389,0.389,0.866,0.548,1.061,0.354s0.035-0.672-0.354-1.061L67.475,66.768z"/>
	</g>
	<g>
		<path d="M77.475,76.768c-0.389-0.389-0.866-0.548-1.061-0.354s-0.035,0.672,0.354,1.061l0.758,0.758
			c0.389,0.389,0.866,0.548,1.061,0.354s0.035-0.672-0.354-1.061L77.475,76.768z"/>
	</g>
	<g>
		<path d="M27.525,28.232c0.389,0.389,0.866,0.548,1.061,0.354s0.035-0.672-0.354-1.061l-0.758-0.758
			c-0.389-0.389-0.866-0.548-1.061-0.354s-0.035,0.672,0.354,1.061L27.525,28.232z"/>
	</g>
	<g>
		<path d="M37.525,38.232c0.389,0.389,0.866,0.548,1.061,0.354s0.035-0.672-0.354-1.061l-0.758-0.758
			c-0.389-0.389-0.866-0.548-1.061-0.354s-0.035,0.672,0.354,1.061L37.525,38.232z"/>
	</g>
	<g>
		<path d="M72.475,71.768c-0.389-0.389-0.866-0.548-1.061-0.354s-0.035,0.672,0.354,1.061l0.758,0.758
			c0.389,0.389,0.866,0.548,1.061,0.354s0.035-0.672-0.354-1.061L72.475,71.768z"/>
	</g>
	<g>
		<path d="M32.525,33.232c0.389,0.389,0.866,0.548,1.061,0.354s0.035-0.672-0.354-1.061l-0.758-0.758
			c-0.389-0.389-0.866-0.548-1.061-0.354s-0.035,0.672,0.354,1.061L32.525,33.232z"/>
	</g>
	<g>
		<path d="M52.475,51.768c-0.389-0.389-0.866-0.548-1.061-0.354s-0.035,0.672,0.354,1.061l0.758,0.758
			c0.389,0.389,0.866,0.548,1.061,0.354s0.035-0.672-0.354-1.061L52.475,51.768z"/>
	</g>
	<g>
		<path d="M47.525,48.232c0.389,0.389,0.866,0.548,1.061,0.354s0.035-0.672-0.354-1.061l-0.758-0.758
			c-0.389-0.389-0.866-0.548-1.061-0.354s-0.035,0.672,0.354,1.061L47.525,48.232z"/>
	</g>
	<g>
		<path d="M57.475,56.768c-0.389-0.389-0.866-0.548-1.061-0.354s-0.035,0.672,0.354,1.061l0.758,0.758
			c0.389,0.389,0.866,0.548,1.061,0.354s0.035-0.672-0.354-1.061L57.475,56.768z"/>
	</g>
	<g>
		<path d="M62.475,61.768c-0.389-0.389-0.866-0.548-1.061-0.354s-0.035,0.672,0.354,1.061l0.758,0.758
			c0.389,0.389,0.866,0.548,1.061,0.354s0.035-0.672-0.354-1.061L62.475,61.768z"/>
	</g>
	<g>
		<path d="M42.525,43.232c0.389,0.389,0.866,0.548,1.061,0.354s0.035-0.672-0.354-1.061l-0.758-0.758
			c-0.389-0.389-0.866-0.548-1.061-0.354s-0.035,0.672,0.354,1.061L42.525,43.232z"/>
	</g>
	<g>
		<path d="M82.475,81.768c-0.389-0.389-0.866-0.548-1.061-0.354s-0.035,0.672,0.354,1.061l0.758,0.758
			c0.389,0.389,0.866,0.548,1.061,0.354s0.035-0.672-0.354-1.061L82.475,81.768z"/>
	</g>
	<g>
		<path d="M7.525,8.232C7.914,8.621,8.392,8.78,8.586,8.586s0.035-0.672-0.354-1.061L7.475,6.768
			C7.086,6.379,6.608,6.22,6.414,6.414S6.379,7.086,6.768,7.475L7.525,8.232z"/>
	</g>
	<g>
		<path d="M97.475,96.768c-0.389-0.389-0.866-0.548-1.061-0.354s-0.035,0.672,0.354,1.061l0.758,0.758
			c0.389,0.389,0.866,0.548,1.061,0.354s0.035-0.672-0.354-1.061L97.475,96.768z"/>
	</g>
	<g>
		<path d="M2.525,3.232C2.914,3.621,3.392,3.78,3.586,3.586s0.035-0.672-0.354-1.061L2.475,1.768
			C2.086,1.379,1.608,1.22,1.414,1.414S1.379,2.086,1.768,2.475L2.525,3.232z"/>
	</g>
	<g>
		<path d="M17.525,18.232c0.389,0.389,0.866,0.548,1.061,0.354s0.035-0.672-0.354-1.061l-0.758-0.758
			c-0.389-0.389-0.866-0.548-1.061-0.354s-0.035,0.672,0.354,1.061L17.525,18.232z"/>
	</g>
	<g>
		<path d="M87.475,86.768c-0.389-0.389-0.866-0.548-1.061-0.354s-0.035,0.672,0.354,1.061l0.758,0.758
			c0.389,0.389,0.866,0.548,1.061,0.354s0.035-0.672-0.354-1.061L87.475,86.768z"/>
	</g>
	<g>
		<path d="M92.475,91.768c-0.389-0.389-0.866-0.548-1.061-0.354s-0.035,0.672,0.354,1.061l0.758,0.758
			c0.389,0.389,0.866,0.548,1.061,0.354s0.035-0.672-0.354-1.061L92.475,91.768z"/>
	</g>
	<g>
		<path d="M22.525,23.232c0.389,0.389,0.866,0.548,1.061,0.354s0.035-0.672-0.354-1.061l-0.758-0.758
			c-0.389-0.389-0.866-0.548-1.061-0.354s-0.035,0.672,0.354,1.061L22.525,23.232z"/>
	</g>
	<g>
		<path d="M12.525,13.232c0.389,0.389,0.866,0.548,1.061,0.354s0.035-0.672-0.354-1.061l-0.758-0.758
			c-0.389-0.389-0.866-0.548-1.061-0.354s-0.035,0.672,0.354,1.061L12.525,13.232z"/>
	</g>
	<g>
		<path d="M67.475,76.768c-0.389-0.389-0.866-0.548-1.061-0.354s-0.035,0.672,0.354,1.061l0.758,0.758
			c0.389,0.389,0.866,0.548,1.061,0.354s0.035-0.672-0.354-1.061L67.475,76.768z"/>
	</g>
	<g>
		<path d="M77.475,86.768c-0.389-0.389-0.866-0.548-1.061-0.354s-0.035,0.672,0.354,1.061l0.758,0.758
			c0.389,0.389,0.866,0.548,1.061,0.354s0.035-0.672-0.354-1.061L77.475,86.768z"/>
	</g>
	<g>
		<path d="M27.525,38.232c0.389,0.389,0.866,0.548,1.061,0.354s0.035-0.672-0.354-1.061l-0.758-0.758
			c-0.389-0.389-0.866-0.548-1.061-0.354s-0.035,0.672,0.354,1.061L27.525,38.232z"/>
	</g>
	<g>
		<path d="M37.525,48.232c0.389,0.389,0.866,0.548,1.061,0.354s0.035-0.672-0.354-1.061l-0.758-0.758
			c-0.389-0.389-0.866-0.548-1.061-0.354s-0.035,0.672,0.354,1.061L37.525,48.232z"/>
	</g>
	<g>
		<path d="M72.475,81.768c-0.389-0.389-0.866-0.548-1.061-0.354s-0.035,0.672,0.354,1.061l0.758,0.758
			c0.389,0.389,0.866,0.548,1.061,0.354s0.035-0.672-0.354-1.061L72.475,81.768z"/>
	</g>
	<g>
		<path d="M32.525,43.232c0.389,0.389,0.866,0.548,1.061,0.354s0.035-0.672-0.354-1.061l-0.758-0.758
			c-0.389-0.389-0.866-0.548-1.061-0.354s-0.035,0.672,0.354,1.061L32.525,43.232z"/>
	</g>
	<g>
		<path d="M52.475,61.768c-0.389-0.389-0.866-0.548-1.061-0.354s-0.035,0.672,0.354,1.061l0.758,0.758
			c0.389,0.389,0.866,0.548,1.061,0.354s0.035-0.672-0.354-1.061L52.475,61.768z"/>
	</g>
	<g>
		<path d="M47.525,58.232c0.389,0.389,0.866,0.548,1.061,0.354s0.035-0.672-0.354-1.061l-0.758-0.758
			c-0.389-0.389-0.866-0.548-1.061-0.354s-0.035,0.672,0.354,1.061L47.525,58.232z"/>
	</g>
	<g>
		<path d="M57.475,66.768c-0.389-0.389-0.866-0.548-1.061-0.354s-0.035,0.672,0.354,1.061l0.758,0.758
			c0.389,0.389,0.866,0.548,1.061,0.354s0.035-0.672-0.354-1.061L57.475,66.768z"/>
	</g>
	<g>
		<path d="M62.475,71.768c-0.389-0.389-0.866-0.548-1.061-0.354s-0.035,0.672,0.354,1.061l0.758,0.758
			c0.389,0.389,0.866,0.548,1.061,0.354s0.035-0.672-0.354-1.061L62.475,71.768z"/>
	</g>
	<g>
		<path d="M42.525,53.232c0.389,0.389,0.866,0.548,1.061,0.354s0.035-0.672-0.354-1.061l-0.758-0.758
			c-0.389-0.389-0.866-0.548-1.061-0.354s-0.035,0.672,0.354,1.061L42.525,53.232z"/>
	</g>
	<g>
		<path d="M82.475,91.768c-0.389-0.389-0.866-0.548-1.061-0.354s-0.035,0.672,0.354,1.061l0.758,0.758
			c0.389,0.389,0.866,0.548,1.061,0.354s0.035-0.672-0.354-1.061L82.475,91.768z"/>
	</g>
	<g>
		<path d="M7.525,18.232c0.389,0.389,0.866,0.548,1.061,0.354s0.035-0.672-0.354-1.061l-0.758-0.758
			c-0.389-0.389-0.866-0.548-1.061-0.354s-0.035,0.672,0.354,1.061L7.525,18.232z"/>
	</g>
	<g>
		<path d="M2.525,13.232c0.389,0.389,0.866,0.548,1.061,0.354s0.035-0.672-0.354-1.061l-0.758-0.758
			c-0.389-0.389-0.866-0.548-1.061-0.354s-0.035,0.672,0.354,1.061L2.525,13.232z"/>
	</g>
	<g>
		<path d="M17.525,28.232c0.389,0.389,0.866,0.548,1.061,0.354s0.035-0.672-0.354-1.061l-0.758-0.758
			c-0.389-0.389-0.866-0.548-1.061-0.354s-0.035,0.672,0.354,1.061L17.525,28.232z"/>
	</g>
	<g>
		<path d="M87.475,96.768c-0.389-0.389-0.866-0.548-1.061-0.354s-0.035,0.672,0.354,1.061l0.758,0.758
			c0.389,0.389,0.866,0.548,1.061,0.354s0.035-0.672-0.354-1.061L87.475,96.768z"/>
	</g>
	<g>
		<path d="M22.525,33.232c0.389,0.389,0.866,0.548,1.061,0.354s0.035-0.672-0.354-1.061l-0.758-0.758
			c-0.389-0.389-0.866-0.548-1.061-0.354s-0.035,0.672,0.354,1.061L22.525,33.232z"/>
	</g>
	<g>
		<path d="M12.525,23.232c0.389,0.389,0.866,0.548,1.061,0.354s0.035-0.672-0.354-1.061l-0.758-0.758
			c-0.389-0.389-0.866-0.548-1.061-0.354s-0.035,0.672,0.354,1.061L12.525,23.232z"/>
	</g>
	<g>
		<path d="M67.475,86.768c-0.389-0.389-0.866-0.548-1.061-0.354s-0.035,0.672,0.354,1.061l0.758,0.758
			c0.389,0.389,0.866,0.548,1.061,0.354s0.035-0.672-0.354-1.061L67.475,86.768z"/>
	</g>
	<g>
		<path d="M77.475,96.768c-0.389-0.389-0.866-0.548-1.061-0.354s-0.035,0.672,0.354,1.061l0.758,0.758
			c0.389,0.389,0.866,0.548,1.061,0.354s0.035-0.672-0.354-1.061L77.475,96.768z"/>
	</g>
	<g>
		<path d="M27.525,48.232c0.389,0.389,0.866,0.548,1.061,0.354s0.035-0.672-0.354-1.061l-0.758-0.758
			c-0.389-0.389-0.866-0.548-1.061-0.354s-0.035,0.672,0.354,1.061L27.525,48.232z"/>
	</g>
	<g>
		<path d="M37.525,58.232c0.389,0.389,0.866,0.548,1.061,0.354s0.035-0.672-0.354-1.061l-0.758-0.758
			c-0.389-0.389-0.866-0.548-1.061-0.354s-0.035,0.672,0.354,1.061L37.525,58.232z"/>
	</g>
	<g>
		<path d="M72.475,91.768c-0.389-0.389-0.866-0.548-1.061-0.354s-0.035,0.672,0.354,1.061l0.758,0.758
			c0.389,0.389,0.866,0.548,1.061,0.354s0.035-0.672-0.354-1.061L72.475,91.768z"/>
	</g>
	<g>
		<path d="M32.525,53.232c0.389,0.389,0.866,0.548,1.061,0.354s0.035-0.672-0.354-1.061l-0.758-0.758
			c-0.389-0.389-0.866-0.548-1.061-0.354s-0.035,0.672,0.354,1.061L32.525,53.232z"/>
	</g>
	<g>
		<path d="M52.475,71.768c-0.389-0.389-0.866-0.548-1.061-0.354s-0.035,0.672,0.354,1.061l0.758,0.758
			c0.389,0.389,0.866,0.548,1.061,0.354s0.035-0.672-0.354-1.061L52.475,71.768z"/>
	</g>
	<g>
		<path d="M47.525,68.232c0.389,0.389,0.866,0.548,1.061,0.354s0.035-0.672-0.354-1.061l-0.758-0.758
			c-0.389-0.389-0.866-0.548-1.061-0.354s-0.035,0.672,0.354,1.061L47.525,68.232z"/>
	</g>
	<g>
		<path d="M57.475,76.768c-0.389-0.389-0.866-0.548-1.061-0.354s-0.035,0.672,0.354,1.061l0.758,0.758
			c0.389,0.389,0.866,0.548,1.061,0.354s0.035-0.672-0.354-1.061L57.475,76.768z"/>
	</g>
	<g>
		<path d="M62.475,81.768c-0.389-0.389-0.866-0.548-1.061-0.354s-0.035,0.672,0.354,1.061l0.758,0.758
			c0.389,0.389,0.866,0.548,1.061,0.354s0.035-0.672-0.354-1.061L62.475,81.768z"/>
	</g>
	<g>
		<path d="M42.525,63.232c0.389,0.389,0.866,0.548,1.061,0.354s0.035-0.672-0.354-1.061l-0.758-0.758
			c-0.389-0.389-0.866-0.548-1.061-0.354s-0.035,0.672,0.354,1.061L42.525,63.232z"/>
	</g>
	<g>
		<path d="M7.525,28.232c0.389,0.389,0.866,0.548,1.061,0.354s0.035-0.672-0.354-1.061l-0.758-0.758
			c-0.389-0.389-0.866-0.548-1.061-0.354s-0.035,0.672,0.354,1.061L7.525,28.232z"/>
	</g>
	<g>
		<path d="M2.525,23.232c0.389,0.389,0.866,0.548,1.061,0.354s0.035-0.672-0.354-1.061l-0.758-0.758
			c-0.389-0.389-0.866-0.548-1.061-0.354s-0.035,0.672,0.354,1.061L2.525,23.232z"/>
	</g>
	<g>
		<path d="M17.525,38.232c0.389,0.389,0.866,0.548,1.061,0.354s0.035-0.672-0.354-1.061l-0.758-0.758
			c-0.389-0.389-0.866-0.548-1.061-0.354s-0.035,0.672,0.354,1.061L17.525,38.232z"/>
	</g>
	<g>
		<path d="M22.525,43.232c0.389,0.389,0.866,0.548,1.061,0.354s0.035-0.672-0.354-1.061l-0.758-0.758
			c-0.389-0.389-0.866-0.548-1.061-0.354s-0.035,0.672,0.354,1.061L22.525,43.232z"/>
	</g>
	<g>
		<path d="M12.525,33.232c0.389,0.389,0.866,0.548,1.061,0.354s0.035-0.672-0.354-1.061l-0.758-0.758
			c-0.389-0.389-0.866-0.548-1.061-0.354s-0.035,0.672,0.354,1.061L12.525,33.232z"/>
	</g>
	<g>
		<path d="M67.475,96.768c-0.389-0.389-0.866-0.548-1.061-0.354s-0.035,0.672,0.354,1.061l0.758,0.758
			c0.389,0.389,0.866,0.548,1.061,0.354s0.035-0.672-0.354-1.061L67.475,96.768z"/>
	</g>
	<g>
		<path d="M27.525,58.232c0.389,0.389,0.866,0.548,1.061,0.354s0.035-0.672-0.354-1.061l-0.758-0.758
			c-0.389-0.389-0.866-0.548-1.061-0.354s-0.035,0.672,0.354,1.061L27.525,58.232z"/>
	</g>
	<g>
		<path d="M37.525,68.232c0.389,0.389,0.866,0.548,1.061,0.354s0.035-0.672-0.354-1.061l-0.758-0.758
			c-0.389-0.389-0.866-0.548-1.061-0.354s-0.035,0.672,0.354,1.061L37.525,68.232z"/>
	</g>
	<g>
		<path d="M32.525,63.232c0.389,0.389,0.866,0.548,1.061,0.354s0.035-0.672-0.354-1.061l-0.758-0.758
			c-0.389-0.389-0.866-0.548-1.061-0.354s-0.035,0.672,0.354,1.061L32.525,63.232z"/>
	</g>
	<g>
		<path d="M52.475,81.768c-0.389-0.389-0.866-0.548-1.061-0.354s-0.035,0.672,0.354,1.061l0.758,0.758
			c0.389,0.389,0.866,0.548,1.061,0.354s0.035-0.672-0.354-1.061L52.475,81.768z"/>
	</g>
	<g>
		<path d="M47.525,78.232c0.389,0.389,0.866,0.548,1.061,0.354s0.035-0.672-0.354-1.061l-0.758-0.758
			c-0.389-0.389-0.866-0.548-1.061-0.354s-0.035,0.672,0.354,1.061L47.525,78.232z"/>
	</g>
	<g>
		<path d="M57.475,86.768c-0.389-0.389-0.866-0.548-1.061-0.354s-0.035,0.672,0.354,1.061l0.758,0.758
			c0.389,0.389,0.866,0.548,1.061,0.354s0.035-0.672-0.354-1.061L57.475,86.768z"/>
	</g>
	<g>
		<path d="M62.475,91.768c-0.389-0.389-0.866-0.548-1.061-0.354s-0.035,0.672,0.354,1.061l0.758,0.758
			c0.389,0.389,0.866,0.548,1.061,0.354s0.035-0.672-0.354-1.061L62.475,91.768z"/>
	</g>
	<g>
		<path d="M42.525,73.232c0.389,0.389,0.866,0.548,1.061,0.354s0.035-0.672-0.354-1.061l-0.758-0.758
			c-0.389-0.389-0.866-0.548-1.061-0.354s-0.035,0.672,0.354,1.061L42.525,73.232z"/>
	</g>
	<g>
		<path d="M7.525,38.232c0.389,0.389,0.866,0.548,1.061,0.354s0.035-0.672-0.354-1.061l-0.758-0.758
			c-0.389-0.389-0.866-0.548-1.061-0.354s-0.035,0.672,0.354,1.061L7.525,38.232z"/>
	</g>
	<g>
		<path d="M2.525,33.232c0.389,0.389,0.866,0.548,1.061,0.354s0.035-0.672-0.354-1.061l-0.758-0.758
			c-0.389-0.389-0.866-0.548-1.061-0.354s-0.035,0.672,0.354,1.061L2.525,33.232z"/>
	</g>
	<g>
		<path d="M17.525,48.232c0.389,0.389,0.866,0.548,1.061,0.354s0.035-0.672-0.354-1.061l-0.758-0.758
			c-0.389-0.389-0.866-0.548-1.061-0.354s-0.035,0.672,0.354,1.061L17.525,48.232z"/>
	</g>
	<g>
		<path d="M22.525,53.232c0.389,0.389,0.866,0.548,1.061,0.354s0.035-0.672-0.354-1.061l-0.758-0.758
			c-0.389-0.389-0.866-0.548-1.061-0.354s-0.035,0.672,0.354,1.061L22.525,53.232z"/>
	</g>
	<g>
		<path d="M12.525,43.232c0.389,0.389,0.866,0.548,1.061,0.354s0.035-0.672-0.354-1.061l-0.758-0.758
			c-0.389-0.389-0.866-0.548-1.061-0.354s-0.035,0.672,0.354,1.061L12.525,43.232z"/>
	</g>
	<g>
		<path d="M27.525,68.232c0.389,0.389,0.866,0.548,1.061,0.354s0.035-0.672-0.354-1.061l-0.758-0.758
			c-0.389-0.389-0.866-0.548-1.061-0.354s-0.035,0.672,0.354,1.061L27.525,68.232z"/>
	</g>
	<g>
		<path d="M37.525,78.232c0.389,0.389,0.866,0.548,1.061,0.354s0.035-0.672-0.354-1.061l-0.758-0.758
			c-0.389-0.389-0.866-0.548-1.061-0.354s-0.035,0.672,0.354,1.061L37.525,78.232z"/>
	</g>
	<g>
		<path d="M32.525,73.232c0.389,0.389,0.866,0.548,1.061,0.354s0.035-0.672-0.354-1.061l-0.758-0.758
			c-0.389-0.389-0.866-0.548-1.061-0.354s-0.035,0.672,0.354,1.061L32.525,73.232z"/>
	</g>
	<g>
		<path d="M52.475,91.768c-0.389-0.389-0.866-0.548-1.061-0.354s-0.035,0.672,0.354,1.061l0.758,0.758
			c0.389,0.389,0.866,0.548,1.061,0.354s0.035-0.672-0.354-1.061L52.475,91.768z"/>
	</g>
	<g>
		<path d="M47.525,88.232c0.389,0.389,0.866,0.548,1.061,0.354s0.035-0.672-0.354-1.061l-0.758-0.758
			c-0.389-0.389-0.866-0.548-1.061-0.354s-0.035,0.672,0.354,1.061L47.525,88.232z"/>
	</g>
	<g>
		<path d="M57.475,96.768c-0.389-0.389-0.866-0.548-1.061-0.354s-0.035,0.672,0.354,1.061l0.758,0.758
			c0.389,0.389,0.866,0.548,1.061,0.354s0.035-0.672-0.354-1.061L57.475,96.768z"/>
	</g>
	<g>
		<path d="M42.525,83.232c0.389,0.389,0.866,0.548,1.061,0.354s0.035-0.672-0.354-1.061l-0.758-0.758
			c-0.389-0.389-0.866-0.548-1.061-0.354s-0.035,0.672,0.354,1.061L42.525,83.232z"/>
	</g>
	<g>
		<path d="M7.525,48.232c0.389,0.389,0.866,0.548,1.061,0.354s0.035-0.672-0.354-1.061l-0.758-0.758
			c-0.389-0.389-0.866-0.548-1.061-0.354s-0.035,0.672,0.354,1.061L7.525,48.232z"/>
	</g>
	<g>
		<path d="M2.525,43.232c0.389,0.389,0.866,0.548,1.061,0.354s0.035-0.672-0.354-1.061l-0.758-0.758
			c-0.389-0.389-0.866-0.548-1.061-0.354s-0.035,0.672,0.354,1.061L2.525,43.232z"/>
	</g>
	<g>
		<path d="M17.525,58.232c0.389,0.389,0.866,0.548,1.061,0.354s0.035-0.672-0.354-1.061l-0.758-0.758
			c-0.389-0.389-0.866-0.548-1.061-0.354s-0.035,0.672,0.354,1.061L17.525,58.232z"/>
	</g>
	<g>
		<path d="M22.525,63.232c0.389,0.389,0.866,0.548,1.061,0.354s0.035-0.672-0.354-1.061l-0.758-0.758
			c-0.389-0.389-0.866-0.548-1.061-0.354s-0.035,0.672,0.354,1.061L22.525,63.232z"/>
	</g>
	<g>
		<path d="M12.525,53.232c0.389,0.389,0.866,0.548,1.061,0.354s0.035-0.672-0.354-1.061l-0.758-0.758
			c-0.389-0.389-0.866-0.548-1.061-0.354s-0.035,0.672,0.354,1.061L12.525,53.232z"/>
	</g>
	<g>
		<path d="M27.525,78.232c0.389,0.389,0.866,0.548,1.061,0.354s0.035-0.672-0.354-1.061l-0.758-0.758
			c-0.389-0.389-0.866-0.548-1.061-0.354s-0.035,0.672,0.354,1.061L27.525,78.232z"/>
	</g>
	<g>
		<path d="M37.525,88.232c0.389,0.389,0.866,0.548,1.061,0.354s0.035-0.672-0.354-1.061l-0.758-0.758
			c-0.389-0.389-0.866-0.548-1.061-0.354s-0.035,0.672,0.354,1.061L37.525,88.232z"/>
	</g>
	<g>
		<path d="M32.525,83.232c0.389,0.389,0.866,0.548,1.061,0.354s0.035-0.672-0.354-1.061l-0.758-0.758
			c-0.389-0.389-0.866-0.548-1.061-0.354s-0.035,0.672,0.354,1.061L32.525,83.232z"/>
	</g>
	<g>
		<path d="M47.525,98.232c0.389,0.389,0.866,0.548,1.061,0.354s0.035-0.672-0.354-1.061l-0.758-0.758
			c-0.389-0.389-0.866-0.548-1.061-0.354s-0.035,0.672,0.354,1.061L47.525,98.232z"/>
	</g>
	<g>
		<path d="M42.525,93.232c0.389,0.389,0.866,0.548,1.061,0.354s0.035-0.672-0.354-1.061l-0.758-0.758
			c-0.389-0.389-0.866-0.548-1.061-0.354s-0.035,0.672,0.354,1.061L42.525,93.232z"/>
	</g>
	<g>
		<path d="M7.525,58.232c0.389,0.389,0.866,0.548,1.061,0.354s0.035-0.672-0.354-1.061l-0.758-0.758
			c-0.389-0.389-0.866-0.548-1.061-0.354s-0.035,0.672,0.354,1.061L7.525,58.232z"/>
	</g>
	<g>
		<path d="M2.525,53.232c0.389,0.389,0.866,0.548,1.061,0.354s0.035-0.672-0.354-1.061l-0.758-0.758
			c-0.389-0.389-0.866-0.548-1.061-0.354s-0.035,0.672,0.354,1.061L2.525,53.232z"/>
	</g>
	<g>
		<path d="M17.525,68.232c0.389,0.389,0.866,0.548,1.061,0.354s0.035-0.672-0.354-1.061l-0.758-0.758
			c-0.389-0.389-0.866-0.548-1.061-0.354s-0.035,0.672,0.354,1.061L17.525,68.232z"/>
	</g>
	<g>
		<path d="M22.525,73.232c0.389,0.389,0.866,0.548,1.061,0.354s0.035-0.672-0.354-1.061l-0.758-0.758
			c-0.389-0.389-0.866-0.548-1.061-0.354s-0.035,0.672,0.354,1.061L22.525,73.232z"/>
	</g>
	<g>
		<path d="M12.525,63.232c0.389,0.389,0.866,0.548,1.061,0.354s0.035-0.672-0.354-1.061l-0.758-0.758
			c-0.389-0.389-0.866-0.548-1.061-0.354s-0.035,0.672,0.354,1.061L12.525,63.232z"/>
	</g>
	<g>
		<path d="M27.525,88.232c0.389,0.389,0.866,0.548,1.061,0.354s0.035-0.672-0.354-1.061l-0.758-0.758
			c-0.389-0.389-0.866-0.548-1.061-0.354s-0.035,0.672,0.354,1.061L27.525,88.232z"/>
	</g>
	<g>
		<path d="M37.525,98.232c0.389,0.389,0.866,0.548,1.061,0.354s0.035-0.672-0.354-1.061l-0.758-0.758
			c-0.389-0.389-0.866-0.548-1.061-0.354s-0.035,0.672,0.354,1.061L37.525,98.232z"/>
	</g>
	<g>
		<path d="M32.525,93.232c0.389,0.389,0.866,0.548,1.061,0.354s0.035-0.672-0.354-1.061l-0.758-0.758
			c-0.389-0.389-0.866-0.548-1.061-0.354s-0.035,0.672,0.354,1.061L32.525,93.232z"/>
	</g>
	<g>
		<path d="M7.525,68.232c0.389,0.389,0.866,0.548,1.061,0.354s0.035-0.672-0.354-1.061l-0.758-0.758
			c-0.389-0.389-0.866-0.548-1.061-0.354s-0.035,0.672,0.354,1.061L7.525,68.232z"/>
	</g>
	<g>
		<path d="M2.525,63.232c0.389,0.389,0.866,0.548,1.061,0.354s0.035-0.672-0.354-1.061l-0.758-0.758
			c-0.389-0.389-0.866-0.548-1.061-0.354s-0.035,0.672,0.354,1.061L2.525,63.232z"/>
	</g>
	<g>
		<path d="M17.525,78.232c0.389,0.389,0.866,0.548,1.061,0.354s0.035-0.672-0.354-1.061l-0.758-0.758
			c-0.389-0.389-0.866-0.548-1.061-0.354s-0.035,0.672,0.354,1.061L17.525,78.232z"/>
	</g>
	<g>
		<path d="M22.525,83.232c0.389,0.389,0.866,0.548,1.061,0.354s0.035-0.672-0.354-1.061l-0.758-0.758
			c-0.389-0.389-0.866-0.548-1.061-0.354s-0.035,0.672,0.354,1.061L22.525,83.232z"/>
	</g>
	<g>
		<path d="M12.525,73.232c0.389,0.389,0.866,0.548,1.061,0.354s0.035-0.672-0.354-1.061l-0.758-0.758
			c-0.389-0.389-0.866-0.548-1.061-0.354s-0.035,0.672,0.354,1.061L12.525,73.232z"/>
	</g>
	<g>
		<path d="M27.525,98.232c0.389,0.389,0.866,0.548,1.061,0.354s0.035-0.672-0.354-1.061l-0.758-0.758
			c-0.389-0.389-0.866-0.548-1.061-0.354s-0.035,0.672,0.354,1.061L27.525,98.232z"/>
	</g>
	<g>
		<path d="M7.525,78.232c0.389,0.389,0.866,0.548,1.061,0.354s0.035-0.672-0.354-1.061l-0.758-0.758
			c-0.389-0.389-0.866-0.548-1.061-0.354s-0.035,0.672,0.354,1.061L7.525,78.232z"/>
	</g>
	<g>
		<path d="M2.525,73.232c0.389,0.389,0.866,0.548,1.061,0.354s0.035-0.672-0.354-1.061l-0.758-0.758
			c-0.389-0.389-0.866-0.548-1.061-0.354s-0.035,0.672,0.354,1.061L2.525,73.232z"/>
	</g>
	<g>
		<path d="M17.525,88.232c0.389,0.389,0.866,0.548,1.061,0.354s0.035-0.672-0.354-1.061l-0.758-0.758
			c-0.389-0.389-0.866-0.548-1.061-0.354s-0.035,0.672,0.354,1.061L17.525,88.232z"/>
	</g>
	<g>
		<path d="M22.525,93.232c0.389,0.389,0.866,0.548,1.061,0.354s0.035-0.672-0.354-1.061l-0.758-0.758
			c-0.389-0.389-0.866-0.548-1.061-0.354s-0.035,0.672,0.354,1.061L22.525,93.232z"/>
	</g>
	<g>
		<path d="M12.525,83.232c0.389,0.389,0.866,0.548,1.061,0.354s0.035-0.672-0.354-1.061l-0.758-0.758
			c-0.389-0.389-0.866-0.548-1.061-0.354s-0.035,0.672,0.354,1.061L12.525,83.232z"/>
	</g>
	<g>
		<path d="M7.525,88.232c0.389,0.389,0.866,0.548,1.061,0.354s0.035-0.672-0.354-1.061l-0.758-0.758
			c-0.389-0.389-0.866-0.548-1.061-0.354s-0.035,0.672,0.354,1.061L7.525,88.232z"/>
	</g>
	<g>
		<path d="M2.525,83.232c0.389,0.389,0.866,0.548,1.061,0.354s0.035-0.672-0.354-1.061l-0.758-0.758
			c-0.389-0.389-0.866-0.548-1.061-0.354s-0.035,0.672,0.354,1.061L2.525,83.232z"/>
	</g>
	<g>
		<path d="M17.525,98.232c0.389,0.389,0.866,0.548,1.061,0.354s0.035-0.672-0.354-1.061l-0.758-0.758
			c-0.389-0.389-0.866-0.548-1.061-0.354s-0.035,0.672,0.354,1.061L17.525,98.232z"/>
	</g>
	<g>
		<path d="M12.525,93.232c0.389,0.389,0.866,0.548,1.061,0.354s0.035-0.672-0.354-1.061l-0.758-0.758
			c-0.389-0.389-0.866-0.548-1.061-0.354s-0.035,0.672,0.354,1.061L12.525,93.232z"/>
	</g>
	<g>
		<path d="M7.525,98.232c0.389,0.389,0.866,0.548,1.061,0.354s0.035-0.672-0.354-1.061l-0.758-0.758
			c-0.389-0.389-0.866-0.548-1.061-0.354s-0.035,0.672,0.354,1.061L7.525,98.232z"/>
	</g>
	<g>
		<path d="M2.525,93.232c0.389,0.389,0.866,0.548,1.061,0.354s0.035-0.672-0.354-1.061l-0.758-0.758
			c-0.389-0.389-0.866-0.548-1.061-0.354s-0.035,0.672,0.354,1.061L2.525,93.232z"/>
	</g>
	<g>
		<path d="M67.475,56.768c-0.389-0.389-0.866-0.548-1.061-0.354s-0.035,0.672,0.354,1.061l0.758,0.758
			c0.389,0.389,0.866,0.548,1.061,0.354s0.035-0.672-0.354-1.061L67.475,56.768z"/>
	</g>
	<g>
		<path d="M77.475,66.768c-0.389-0.389-0.866-0.548-1.061-0.354s-0.035,0.672,0.354,1.061l0.758,0.758
			c0.389,0.389,0.866,0.548,1.061,0.354s0.035-0.672-0.354-1.061L77.475,66.768z"/>
	</g>
	<g>
		<path d="M27.525,18.232c0.389,0.389,0.866,0.548,1.061,0.354s0.035-0.672-0.354-1.061l-0.758-0.758
			c-0.389-0.389-0.866-0.548-1.061-0.354s-0.035,0.672,0.354,1.061L27.525,18.232z"/>
	</g>
	<g>
		<path d="M37.525,28.232c0.389,0.389,0.866,0.548,1.061,0.354s0.035-0.672-0.354-1.061l-0.758-0.758
			c-0.389-0.389-0.866-0.548-1.061-0.354s-0.035,0.672,0.354,1.061L37.525,28.232z"/>
	</g>
	<g>
		<path d="M72.475,61.768c-0.389-0.389-0.866-0.548-1.061-0.354s-0.035,0.672,0.354,1.061l0.758,0.758
			c0.389,0.389,0.866,0.548,1.061,0.354s0.035-0.672-0.354-1.061L72.475,61.768z"/>
	</g>
	<g>
		<path d="M32.525,23.232c0.389,0.389,0.866,0.548,1.061,0.354s0.035-0.672-0.354-1.061l-0.758-0.758
			c-0.389-0.389-0.866-0.548-1.061-0.354s-0.035,0.672,0.354,1.061L32.525,23.232z"/>
	</g>
	<g>
		<path d="M52.475,41.768c-0.389-0.389-0.866-0.548-1.061-0.354s-0.035,0.672,0.354,1.061l0.758,0.758
			c0.389,0.389,0.866,0.548,1.061,0.354s0.035-0.672-0.354-1.061L52.475,41.768z"/>
	</g>
	<g>
		<path d="M47.525,38.232c0.389,0.389,0.866,0.548,1.061,0.354s0.035-0.672-0.354-1.061l-0.758-0.758
			c-0.389-0.389-0.866-0.548-1.061-0.354s-0.035,0.672,0.354,1.061L47.525,38.232z"/>
	</g>
	<g>
		<path d="M57.475,46.768c-0.389-0.389-0.866-0.548-1.061-0.354s-0.035,0.672,0.354,1.061l0.758,0.758
			c0.389,0.389,0.866,0.548,1.061,0.354s0.035-0.672-0.354-1.061L57.475,46.768z"/>
	</g>
	<g>
		<path d="M62.475,51.768c-0.389-0.389-0.866-0.548-1.061-0.354s-0.035,0.672,0.354,1.061l0.758,0.758
			c0.389,0.389,0.866,0.548,1.061,0.354s0.035-0.672-0.354-1.061L62.475,51.768z"/>
	</g>
	<g>
		<path d="M42.525,33.232c0.389,0.389,0.866,0.548,1.061,0.354s0.035-0.672-0.354-1.061l-0.758-0.758
			c-0.389-0.389-0.866-0.548-1.061-0.354s-0.035,0.672,0.354,1.061L42.525,33.232z"/>
	</g>
	<g>
		<path d="M82.475,71.768c-0.389-0.389-0.866-0.548-1.061-0.354s-0.035,0.672,0.354,1.061l0.758,0.758
			c0.389,0.389,0.866,0.548,1.061,0.354s0.035-0.672-0.354-1.061L82.475,71.768z"/>
	</g>
	<g>
		<path d="M97.475,86.768c-0.389-0.389-0.866-0.548-1.061-0.354s-0.035,0.672,0.354,1.061l0.758,0.758
			c0.389,0.389,0.866,0.548,1.061,0.354s0.035-0.672-0.354-1.061L97.475,86.768z"/>
	</g>
	<g>
		<path d="M17.525,8.232c0.389,0.389,0.866,0.548,1.061,0.354s0.035-0.672-0.354-1.061l-0.758-0.758
			c-0.389-0.389-0.866-0.548-1.061-0.354s-0.035,0.672,0.354,1.061L17.525,8.232z"/>
	</g>
	<g>
		<path d="M87.475,76.768c-0.389-0.389-0.866-0.548-1.061-0.354s-0.035,0.672,0.354,1.061l0.758,0.758
			c0.389,0.389,0.866,0.548,1.061,0.354s0.035-0.672-0.354-1.061L87.475,76.768z"/>
	</g>
	<g>
		<path d="M92.475,81.768c-0.389-0.389-0.866-0.548-1.061-0.354s-0.035,0.672,0.354,1.061l0.758,0.758
			c0.389,0.389,0.866,0.548,1.061,0.354s0.035-0.672-0.354-1.061L92.475,81.768z"/>
	</g>
	<g>
		<path d="M22.525,13.232c0.389,0.389,0.866,0.548,1.061,0.354s0.035-0.672-0.354-1.061l-0.758-0.758
			c-0.389-0.389-0.866-0.548-1.061-0.354s-0.035,0.672,0.354,1.061L22.525,13.232z"/>
	</g>
	<g>
		<path d="M12.525,3.232c0.389,0.389,0.866,0.548,1.061,0.354s0.035-0.672-0.354-1.061l-0.758-0.758
			c-0.389-0.389-0.866-0.548-1.061-0.354s-0.035,0.672,0.354,1.061L12.525,3.232z"/>
	</g>
	<g>
		<path d="M67.475,46.768c-0.389-0.389-0.866-0.548-1.061-0.354s-0.035,0.672,0.354,1.061l0.758,0.758
			c0.389,0.389,0.866,0.548,1.061,0.354s0.035-0.672-0.354-1.061L67.475,46.768z"/>
	</g>
	<g>
		<path d="M77.475,56.768c-0.389-0.389-0.866-0.548-1.061-0.354s-0.035,0.672,0.354,1.061l0.758,0.758
			c0.389,0.389,0.866,0.548,1.061,0.354s0.035-0.672-0.354-1.061L77.475,56.768z"/>
	</g>
	<g>
		<path d="M27.525,8.232c0.389,0.389,0.866,0.548,1.061,0.354s0.035-0.672-0.354-1.061l-0.758-0.758
			c-0.389-0.389-0.866-0.548-1.061-0.354s-0.035,0.672,0.354,1.061L27.525,8.232z"/>
	</g>
	<g>
		<path d="M37.525,18.232c0.389,0.389,0.866,0.548,1.061,0.354s0.035-0.672-0.354-1.061l-0.758-0.758
			c-0.389-0.389-0.866-0.548-1.061-0.354s-0.035,0.672,0.354,1.061L37.525,18.232z"/>
	</g>
	<g>
		<path d="M72.475,51.768c-0.389-0.389-0.866-0.548-1.061-0.354s-0.035,0.672,0.354,1.061l0.758,0.758
			c0.389,0.389,0.866,0.548,1.061,0.354s0.035-0.672-0.354-1.061L72.475,51.768z"/>
	</g>
	<g>
		<path d="M32.525,13.232c0.389,0.389,0.866,0.548,1.061,0.354s0.035-0.672-0.354-1.061l-0.758-0.758
			c-0.389-0.389-0.866-0.548-1.061-0.354s-0.035,0.672,0.354,1.061L32.525,13.232z"/>
	</g>
	<g>
		<path d="M52.475,31.768c-0.389-0.389-0.866-0.548-1.061-0.354s-0.035,0.672,0.354,1.061l0.758,0.758
			c0.389,0.389,0.866,0.548,1.061,0.354s0.035-0.672-0.354-1.061L52.475,31.768z"/>
	</g>
	<g>
		<path d="M47.525,28.232c0.389,0.389,0.866,0.548,1.061,0.354s0.035-0.672-0.354-1.061l-0.758-0.758
			c-0.389-0.389-0.866-0.548-1.061-0.354s-0.035,0.672,0.354,1.061L47.525,28.232z"/>
	</g>
	<g>
		<path d="M57.475,36.768c-0.389-0.389-0.866-0.548-1.061-0.354s-0.035,0.672,0.354,1.061l0.758,0.758
			c0.389,0.389,0.866,0.548,1.061,0.354s0.035-0.672-0.354-1.061L57.475,36.768z"/>
	</g>
	<g>
		<path d="M62.475,41.768c-0.389-0.389-0.866-0.548-1.061-0.354s-0.035,0.672,0.354,1.061l0.758,0.758
			c0.389,0.389,0.866,0.548,1.061,0.354s0.035-0.672-0.354-1.061L62.475,41.768z"/>
	</g>
	<g>
		<path d="M42.525,23.232c0.389,0.389,0.866,0.548,1.061,0.354s0.035-0.672-0.354-1.061l-0.758-0.758
			c-0.389-0.389-0.866-0.548-1.061-0.354s-0.035,0.672,0.354,1.061L42.525,23.232z"/>
	</g>
	<g>
		<path d="M82.475,61.768c-0.389-0.389-0.866-0.548-1.061-0.354s-0.035,0.672,0.354,1.061l0.758,0.758
			c0.389,0.389,0.866,0.548,1.061,0.354s0.035-0.672-0.354-1.061L82.475,61.768z"/>
	</g>
	<g>
		<path d="M97.475,76.768c-0.389-0.389-0.866-0.548-1.061-0.354s-0.035,0.672,0.354,1.061l0.758,0.758
			c0.389,0.389,0.866,0.548,1.061,0.354s0.035-0.672-0.354-1.061L97.475,76.768z"/>
	</g>
	<g>
		<path d="M87.475,66.768c-0.389-0.389-0.866-0.548-1.061-0.354s-0.035,0.672,0.354,1.061l0.758,0.758
			c0.389,0.389,0.866,0.548,1.061,0.354s0.035-0.672-0.354-1.061L87.475,66.768z"/>
	</g>
	<g>
		<path d="M92.475,71.768c-0.389-0.389-0.866-0.548-1.061-0.354s-0.035,0.672,0.354,1.061l0.758,0.758
			c0.389,0.389,0.866,0.548,1.061,0.354s0.035-0.672-0.354-1.061L92.475,71.768z"/>
	</g>
	<g>
		<path d="M22.525,3.232c0.389,0.389,0.866,0.548,1.061,0.354s0.035-0.672-0.354-1.061l-0.758-0.758
			c-0.389-0.389-0.866-0.548-1.061-0.354s-0.035,0.672,0.354,1.061L22.525,3.232z"/>
	</g>
	<g>
		<path d="M67.475,36.768c-0.389-0.389-0.866-0.548-1.061-0.354s-0.035,0.672,0.354,1.061l0.758,0.758
			c0.389,0.389,0.866,0.548,1.061,0.354s0.035-0.672-0.354-1.061L67.475,36.768z"/>
	</g>
	<g>
		<path d="M77.475,46.768c-0.389-0.389-0.866-0.548-1.061-0.354s-0.035,0.672,0.354,1.061l0.758,0.758
			c0.389,0.389,0.866,0.548,1.061,0.354s0.035-0.672-0.354-1.061L77.475,46.768z"/>
	</g>
	<g>
		<path d="M37.525,8.232c0.389,0.389,0.866,0.548,1.061,0.354s0.035-0.672-0.354-1.061l-0.758-0.758
			c-0.389-0.389-0.866-0.548-1.061-0.354s-0.035,0.672,0.354,1.061L37.525,8.232z"/>
	</g>
	<g>
		<path d="M72.475,41.768c-0.389-0.389-0.866-0.548-1.061-0.354s-0.035,0.672,0.354,1.061l0.758,0.758
			c0.389,0.389,0.866,0.548,1.061,0.354s0.035-0.672-0.354-1.061L72.475,41.768z"/>
	</g>
	<g>
		<path d="M32.525,3.232c0.389,0.389,0.866,0.548,1.061,0.354s0.035-0.672-0.354-1.061l-0.758-0.758
			c-0.389-0.389-0.866-0.548-1.061-0.354s-0.035,0.672,0.354,1.061L32.525,3.232z"/>
	</g>
	<g>
		<path d="M52.475,21.768c-0.389-0.389-0.866-0.548-1.061-0.354s-0.035,0.672,0.354,1.061l0.758,0.758
			c0.389,0.389,0.866,0.548,1.061,0.354s0.035-0.672-0.354-1.061L52.475,21.768z"/>
	</g>
	<g>
		<path d="M47.525,18.232c0.389,0.389,0.866,0.548,1.061,0.354s0.035-0.672-0.354-1.061l-0.758-0.758
			c-0.389-0.389-0.866-0.548-1.061-0.354s-0.035,0.672,0.354,1.061L47.525,18.232z"/>
	</g>
	<g>
		<path d="M57.475,26.768c-0.389-0.389-0.866-0.548-1.061-0.354s-0.035,0.672,0.354,1.061l0.758,0.758
			c0.389,0.389,0.866,0.548,1.061,0.354s0.035-0.672-0.354-1.061L57.475,26.768z"/>
	</g>
	<g>
		<path d="M62.475,31.768c-0.389-0.389-0.866-0.548-1.061-0.354s-0.035,0.672,0.354,1.061l0.758,0.758
			c0.389,0.389,0.866,0.548,1.061,0.354s0.035-0.672-0.354-1.061L62.475,31.768z"/>
	</g>
	<g>
		<path d="M42.525,13.232c0.389,0.389,0.866,0.548,1.061,0.354s0.035-0.672-0.354-1.061l-0.758-0.758
			c-0.389-0.389-0.866-0.548-1.061-0.354s-0.035,0.672,0.354,1.061L42.525,13.232z"/>
	</g>
	<g>
		<path d="M82.475,51.768c-0.389-0.389-0.866-0.548-1.061-0.354s-0.035,0.672,0.354,1.061l0.758,0.758
			c0.389,0.389,0.866,0.548,1.061,0.354s0.035-0.672-0.354-1.061L82.475,51.768z"/>
	</g>
	<g>
		<path d="M97.475,66.768c-0.389-0.389-0.866-0.548-1.061-0.354s-0.035,0.672,0.354,1.061l0.758,0.758
			c0.389,0.389,0.866,0.548,1.061,0.354s0.035-0.672-0.354-1.061L97.475,66.768z"/>
	</g>
	<g>
		<path d="M87.475,56.768c-0.389-0.389-0.866-0.548-1.061-0.354s-0.035,0.672,0.354,1.061l0.758,0.758
			c0.389,0.389,0.866,0.548,1.061,0.354s0.035-0.672-0.354-1.061L87.475,56.768z"/>
	</g>
	<g>
		<path d="M92.475,61.768c-0.389-0.389-0.866-0.548-1.061-0.354s-0.035,0.672,0.354,1.061l0.758,0.758
			c0.389,0.389,0.866,0.548,1.061,0.354s0.035-0.672-0.354-1.061L92.475,61.768z"/>
	</g>
	<g>
		<path d="M67.475,26.768c-0.389-0.389-0.866-0.548-1.061-0.354s-0.035,0.672,0.354,1.061l0.758,0.758
			c0.389,0.389,0.866,0.548,1.061,0.354s0.035-0.672-0.354-1.061L67.475,26.768z"/>
	</g>
	<g>
		<path d="M77.475,36.768c-0.389-0.389-0.866-0.548-1.061-0.354s-0.035,0.672,0.354,1.061l0.758,0.758
			c0.389,0.389,0.866,0.548,1.061,0.354s0.035-0.672-0.354-1.061L77.475,36.768z"/>
	</g>
	<g>
		<path d="M72.475,31.768c-0.389-0.389-0.866-0.548-1.061-0.354s-0.035,0.672,0.354,1.061l0.758,0.758
			c0.389,0.389,0.866,0.548,1.061,0.354s0.035-0.672-0.354-1.061L72.475,31.768z"/>
	</g>
	<g>
		<path d="M52.475,11.768c-0.389-0.389-0.866-0.548-1.061-0.354s-0.035,0.672,0.354,1.061l0.758,0.758
			c0.389,0.389,0.866,0.548,1.061,0.354s0.035-0.672-0.354-1.061L52.475,11.768z"/>
	</g>
	<g>
		<path d="M47.525,8.232c0.389,0.389,0.866,0.548,1.061,0.354s0.035-0.672-0.354-1.061l-0.758-0.758
			c-0.389-0.389-0.866-0.548-1.061-0.354s-0.035,0.672,0.354,1.061L47.525,8.232z"/>
	</g>
	<g>
		<path d="M57.475,16.768c-0.389-0.389-0.866-0.548-1.061-0.354s-0.035,0.672,0.354,1.061l0.758,0.758
			c0.389,0.389,0.866,0.548,1.061,0.354s0.035-0.672-0.354-1.061L57.475,16.768z"/>
	</g>
	<g>
		<path d="M62.475,21.768c-0.389-0.389-0.866-0.548-1.061-0.354s-0.035,0.672,0.354,1.061l0.758,0.758
			c0.389,0.389,0.866,0.548,1.061,0.354s0.035-0.672-0.354-1.061L62.475,21.768z"/>
	</g>
	<g>
		<path d="M42.525,3.232c0.389,0.389,0.866,0.548,1.061,0.354s0.035-0.672-0.354-1.061l-0.758-0.758
			c-0.389-0.389-0.866-0.548-1.061-0.354s-0.035,0.672,0.354,1.061L42.525,3.232z"/>
	</g>
	<g>
		<path d="M82.475,41.768c-0.389-0.389-0.866-0.548-1.061-0.354s-0.035,0.672,0.354,1.061l0.758,0.758
			c0.389,0.389,0.866,0.548,1.061,0.354s0.035-0.672-0.354-1.061L82.475,41.768z"/>
	</g>
	<g>
		<path d="M97.475,56.768c-0.389-0.389-0.866-0.548-1.061-0.354s-0.035,0.672,0.354,1.061l0.758,0.758
			c0.389,0.389,0.866,0.548,1.061,0.354s0.035-0.672-0.354-1.061L97.475,56.768z"/>
	</g>
	<g>
		<path d="M87.475,46.768c-0.389-0.389-0.866-0.548-1.061-0.354s-0.035,0.672,0.354,1.061l0.758,0.758
			c0.389,0.389,0.866,0.548,1.061,0.354s0.035-0.672-0.354-1.061L87.475,46.768z"/>
	</g>
	<g>
		<path d="M92.475,51.768c-0.389-0.389-0.866-0.548-1.061-0.354s-0.035,0.672,0.354,1.061l0.758,0.758
			c0.389,0.389,0.866,0.548,1.061,0.354s0.035-0.672-0.354-1.061L92.475,51.768z"/>
	</g>
	<g>
		<path d="M67.475,16.768c-0.389-0.389-0.866-0.548-1.061-0.354s-0.035,0.672,0.354,1.061l0.758,0.758
			c0.389,0.389,0.866,0.548,1.061,0.354s0.035-0.672-0.354-1.061L67.475,16.768z"/>
	</g>
	<g>
		<path d="M77.475,26.768c-0.389-0.389-0.866-0.548-1.061-0.354s-0.035,0.672,0.354,1.061l0.758,0.758
			c0.389,0.389,0.866,0.548,1.061,0.354s0.035-0.672-0.354-1.061L77.475,26.768z"/>
	</g>
	<g>
		<path d="M72.475,21.768c-0.389-0.389-0.866-0.548-1.061-0.354s-0.035,0.672,0.354,1.061l0.758,0.758
			c0.389,0.389,0.866,0.548,1.061,0.354s0.035-0.672-0.354-1.061L72.475,21.768z"/>
	</g>
	<g>
		<path d="M52.475,1.768c-0.389-0.389-0.866-0.548-1.061-0.354s-0.035,0.672,0.354,1.061l0.758,0.758
			c0.389,0.389,0.866,0.548,1.061,0.354s0.035-0.672-0.354-1.061L52.475,1.768z"/>
	</g>
	<g>
		<path d="M57.475,6.768c-0.389-0.389-0.866-0.548-1.061-0.354s-0.035,0.672,0.354,1.061l0.758,0.758
			c0.389,0.389,0.866,0.548,1.061,0.354s0.035-0.672-0.354-1.061L57.475,6.768z"/>
	</g>
	<g>
		<path d="M62.475,11.768c-0.389-0.389-0.866-0.548-1.061-0.354s-0.035,0.672,0.354,1.061l0.758,0.758
			c0.389,0.389,0.866,0.548,1.061,0.354s0.035-0.672-0.354-1.061L62.475,11.768z"/>
	</g>
	<g>
		<path d="M82.475,31.768c-0.389-0.389-0.866-0.548-1.061-0.354s-0.035,0.672,0.354,1.061l0.758,0.758
			c0.389,0.389,0.866,0.548,1.061,0.354s0.035-0.672-0.354-1.061L82.475,31.768z"/>
	</g>
	<g>
		<path d="M97.475,46.768c-0.389-0.389-0.866-0.548-1.061-0.354s-0.035,0.672,0.354,1.061l0.758,0.758
			c0.389,0.389,0.866,0.548,1.061,0.354s0.035-0.672-0.354-1.061L97.475,46.768z"/>
	</g>
	<g>
		<path d="M87.475,36.768c-0.389-0.389-0.866-0.548-1.061-0.354s-0.035,0.672,0.354,1.061l0.758,0.758
			c0.389,0.389,0.866,0.548,1.061,0.354s0.035-0.672-0.354-1.061L87.475,36.768z"/>
	</g>
	<g>
		<path d="M92.475,41.768c-0.389-0.389-0.866-0.548-1.061-0.354s-0.035,0.672,0.354,1.061l0.758,0.758
			c0.389,0.389,0.866,0.548,1.061,0.354s0.035-0.672-0.354-1.061L92.475,41.768z"/>
	</g>
	<g>
		<path d="M67.475,6.768c-0.389-0.389-0.866-0.548-1.061-0.354s-0.035,0.672,0.354,1.061l0.758,0.758
			c0.389,0.389,0.866,0.548,1.061,0.354s0.035-0.672-0.354-1.061L67.475,6.768z"/>
	</g>
	<g>
		<path d="M77.475,16.768c-0.389-0.389-0.866-0.548-1.061-0.354s-0.035,0.672,0.354,1.061l0.758,0.758
			c0.389,0.389,0.866,0.548,1.061,0.354s0.035-0.672-0.354-1.061L77.475,16.768z"/>
	</g>
	<g>
		<path d="M72.475,11.768c-0.389-0.389-0.866-0.548-1.061-0.354s-0.035,0.672,0.354,1.061l0.758,0.758
			c0.389,0.389,0.866,0.548,1.061,0.354s0.035-0.672-0.354-1.061L72.475,11.768z"/>
	</g>
	<g>
		<path d="M62.475,1.768c-0.389-0.389-0.866-0.548-1.061-0.354s-0.035,0.672,0.354,1.061l0.758,0.758
			c0.389,0.389,0.866,0.548,1.061,0.354s0.035-0.672-0.354-1.061L62.475,1.768z"/>
	</g>
	<g>
		<path d="M82.475,21.768c-0.389-0.389-0.866-0.548-1.061-0.354s-0.035,0.672,0.354,1.061l0.758,0.758
			c0.389,0.389,0.866,0.548,1.061,0.354s0.035-0.672-0.354-1.061L82.475,21.768z"/>
	</g>
	<g>
		<path d="M97.475,36.768c-0.389-0.389-0.866-0.548-1.061-0.354s-0.035,0.672,0.354,1.061l0.758,0.758
			c0.389,0.389,0.866,0.548,1.061,0.354s0.035-0.672-0.354-1.061L97.475,36.768z"/>
	</g>
	<g>
		<path d="M87.475,26.768c-0.389-0.389-0.866-0.548-1.061-0.354s-0.035,0.672,0.354,1.061l0.758,0.758
			c0.389,0.389,0.866,0.548,1.061,0.354s0.035-0.672-0.354-1.061L87.475,26.768z"/>
	</g>
	<g>
		<path d="M92.475,31.768c-0.389-0.389-0.866-0.548-1.061-0.354s-0.035,0.672,0.354,1.061l0.758,0.758
			c0.389,0.389,0.866,0.548,1.061,0.354s0.035-0.672-0.354-1.061L92.475,31.768z"/>
	</g>
	<g>
		<path d="M77.475,6.768c-0.389-0.389-0.866-0.548-1.061-0.354s-0.035,0.672,0.354,1.061l0.758,0.758
			c0.389,0.389,0.866,0.548,1.061,0.354s0.035-0.672-0.354-1.061L77.475,6.768z"/>
	</g>
	<g>
		<path d="M72.475,1.768c-0.389-0.389-0.866-0.548-1.061-0.354s-0.035,0.672,0.354,1.061l0.758,0.758
			c0.389,0.389,0.866,0.548,1.061,0.354s0.035-0.672-0.354-1.061L72.475,1.768z"/>
	</g>
	<g>
		<path d="M82.475,11.768c-0.389-0.389-0.866-0.548-1.061-0.354s-0.035,0.672,0.354,1.061l0.758,0.758
			c0.389,0.389,0.866,0.548,1.061,0.354s0.035-0.672-0.354-1.061L82.475,11.768z"/>
	</g>
	<g>
		<path d="M97.475,26.768c-0.389-0.389-0.866-0.548-1.061-0.354s-0.035,0.672,0.354,1.061l0.758,0.758
			c0.389,0.389,0.866,0.548,1.061,0.354s0.035-0.672-0.354-1.061L97.475,26.768z"/>
	</g>
	<g>
		<path d="M87.475,16.768c-0.389-0.389-0.866-0.548-1.061-0.354s-0.035,0.672,0.354,1.061l0.758,0.758
			c0.389,0.389,0.866,0.548,1.061,0.354s0.035-0.672-0.354-1.061L87.475,16.768z"/>
	</g>
	<g>
		<path d="M92.475,21.768c-0.389-0.389-0.866-0.548-1.061-0.354s-0.035,0.672,0.354,1.061l0.758,0.758
			c0.389,0.389,0.866,0.548,1.061,0.354s0.035-0.672-0.354-1.061L92.475,21.768z"/>
	</g>
	<g>
		<path d="M82.475,1.768c-0.389-0.389-0.866-0.548-1.061-0.354s-0.035,0.672,0.354,1.061l0.758,0.758
			c0.389,0.389,0.866,0.548,1.061,0.354s0.035-0.672-0.354-1.061L82.475,1.768z"/>
	</g>
	<g>
		<path d="M97.475,16.768c-0.389-0.389-0.866-0.548-1.061-0.354s-0.035,0.672,0.354,1.061l0.758,0.758
			c0.389,0.389,0.866,0.548,1.061,0.354s0.035-0.672-0.354-1.061L97.475,16.768z"/>
	</g>
	<g>
		<path d="M87.475,6.768c-0.389-0.389-0.866-0.548-1.061-0.354s-0.035,0.672,0.354,1.061l0.758,0.758
			c0.389,0.389,0.866,0.548,1.061,0.354s0.035-0.672-0.354-1.061L87.475,6.768z"/>
	</g>
	<g>
		<path d="M92.475,11.768c-0.389-0.389-0.866-0.548-1.061-0.354s-0.035,0.672,0.354,1.061l0.758,0.758
			c0.389,0.389,0.866,0.548,1.061,0.354s0.035-0.672-0.354-1.061L92.475,11.768z"/>
	</g>
	<g>
		<path d="M97.475,6.768c-0.389-0.389-0.866-0.548-1.061-0.354s-0.035,0.672,0.354,1.061l0.758,0.758
			c0.389,0.389,0.866,0.548,1.061,0.354s0.035-0.672-0.354-1.061L97.475,6.768z"/>
	</g>
	<g>
		<path d="M92.475,1.768c-0.389-0.389-0.866-0.548-1.061-0.354s-0.035,0.672,0.354,1.061l0.758,0.758
			c0.389,0.389,0.866,0.548,1.061,0.354s0.035-0.672-0.354-1.061L92.475,1.768z"/>
	</g>
</g>
</svg>
