<?xml version="1.0" encoding="utf-8"?>
<!-- Generator: Adobe Illustrator 15.0.2, SVG Export Plug-In . SVG Version: 6.00 Build 0)  -->
<!DOCTYPE svg PUBLIC "-//W3C//DTD SVG 1.1//EN" "http://www.w3.org/Graphics/SVG/1.1/DTD/svg11.dtd">
<svg version="1.1" id="logo" xmlns="http://www.w3.org/2000/svg" xmlns:xlink="http://www.w3.org/1999/xlink" x="0px" y="0px"
	 width="200px" height="33px" viewBox="0 0 200 33" enable-background="new 0 0 200 33" xml:space="preserve">
<g id="default">
	<g id="wrappers">
		<g id="left">
			<path fill="#BABABA" d="M0,17.676v-3.1l15.819-6.52v2.227L1.828,16.125l13.991,5.842v2.188L0,17.676z"/>
		</g>
		<g id="right">
			<path fill="#BABABA" d="M184.182,24.113V21.93l13.989-5.844l-13.989-5.843V8.057L200,14.535v3.1L184.182,24.113z"/>
		</g>
	</g>
	<g id="text">
		<g id="line-1">
			<g id="word-1">
				
					<linearGradient id="character-1_6_" gradientUnits="userSpaceOnUse" x1="1374.3242" y1="-1853.7539" x2="1374.3242" y2="-1850.5879" gradientTransform="matrix(1 0 0 -1 -1342.5 -1843.5)">
					<stop  offset="0" style="stop-color:#CCCCCC"/>
					<stop  offset="1" style="stop-color:#FFFFFF"/>
				</linearGradient>
				<path id="character-1" fill="url(#character-1_6_)" d="M26.11,0.215h3.316l2.428,6.768l2.429-6.768h3.254l-4.339,10.77h-2.75
					L26.11,0.215z"/>
				
					<linearGradient id="character-2_6_" gradientUnits="userSpaceOnUse" x1="1396.8848" y1="-1853.7559" x2="1396.8848" y2="-1850.5894" gradientTransform="matrix(1 0 0 -1 -1342.5 -1843.5)">
					<stop  offset="0" style="stop-color:#CCCCCC"/>
					<stop  offset="1" style="stop-color:#FFFFFF"/>
				</linearGradient>
				<path id="character-2" fill="url(#character-2_6_)" d="M50.047,0.215h8.602v2.52H52.98v1.62h5.134v2.339H52.98v1.695h5.744
					v2.521h-8.678L50.047,0.215L50.047,0.215z"/>
				
					<linearGradient id="character-3_6_" gradientUnits="userSpaceOnUse" x1="1419.127" y1="-1853.7549" x2="1419.127" y2="-1850.5886" gradientTransform="matrix(1 0 0 -1 -1342.5 -1843.5)">
					<stop  offset="0" style="stop-color:#CCCCCC"/>
					<stop  offset="1" style="stop-color:#FFFFFF"/>
				</linearGradient>
				<path id="character-3" fill="url(#character-3_6_)" d="M71.707,0.215h5.058c1.635,0,2.765,0.428,3.483,1.16
					c0.626,0.611,0.947,1.438,0.947,2.491v0.03c0,1.635-0.872,2.72-2.199,3.285l2.55,3.728h-3.421L75.971,7.67H75.94h-1.268v3.239
					h-2.965V0.215z M76.627,5.348c1.008,0,1.589-0.488,1.589-1.268V4.049c0-0.839-0.61-1.268-1.604-1.268h-1.94v2.566L76.627,5.348
					L76.627,5.348z"/>
				
					<linearGradient id="character-4_6_" gradientUnits="userSpaceOnUse" x1="1442.3467" y1="-1853.7559" x2="1442.3467" y2="-1850.5894" gradientTransform="matrix(1 0 0 -1 -1342.5 -1843.5)">
					<stop  offset="0" style="stop-color:#CCCCCC"/>
					<stop  offset="1" style="stop-color:#FFFFFF"/>
				</linearGradient>
				<path id="character-4" fill="url(#character-4_6_)" d="M94.163,0.215h3.132l2.551,4.14l2.552-4.14h3.131v10.694h-2.948V4.768
					l-2.734,4.186h-0.061l-2.72-4.155v6.111h-2.902L94.163,0.215L94.163,0.215z"/>
				
					<linearGradient id="character-5_2_" gradientUnits="userSpaceOnUse" x1="1466.7861" y1="-1853.7549" x2="1466.7861" y2="-1850.5884" gradientTransform="matrix(1 0 0 -1 -1342.5 -1843.5)">
					<stop  offset="0" style="stop-color:#CCCCCC"/>
					<stop  offset="1" style="stop-color:#FFFFFF"/>
				</linearGradient>
				<path id="character-5" fill="url(#character-5_2_)" d="M118.527,5.593V5.562c0-3.071,2.477-5.562,5.771-5.562
					s5.744,2.461,5.744,5.531v0.03c0,3.071-2.479,5.562-5.771,5.562C120.975,11.123,118.527,8.663,118.527,5.593z M127.021,5.593
					V5.562c0-1.542-1.115-2.887-2.75-2.887c-1.619,0-2.703,1.313-2.703,2.856v0.03c0,1.543,1.115,2.888,2.73,2.888
					C125.939,8.449,127.021,7.135,127.021,5.593z"/>
				
					<linearGradient id="character-6_2_" gradientUnits="userSpaceOnUse" x1="1490.6133" y1="-1853.7549" x2="1490.6133" y2="-1850.5886" gradientTransform="matrix(1 0 0 -1 -1342.5 -1843.5)">
					<stop  offset="0" style="stop-color:#CCCCCC"/>
					<stop  offset="1" style="stop-color:#FFFFFF"/>
				</linearGradient>
				<path id="character-6" fill="url(#character-6_2_)" d="M143.062,0.215h2.767l4.399,5.652V0.215h2.934v10.694h-2.6l-4.564-5.867
					v5.867h-2.936V0.215z"/>
				
					<linearGradient id="character-7_2_" gradientUnits="userSpaceOnUse" x1="1513.124" y1="-1853.7559" x2="1513.124" y2="-1850.5894" gradientTransform="matrix(1 0 0 -1 -1342.5 -1843.5)">
					<stop  offset="0" style="stop-color:#CCCCCC"/>
					<stop  offset="1" style="stop-color:#FFFFFF"/>
				</linearGradient>
				<path id="character-7" fill="url(#character-7_2_)" d="M169.141,2.812h-3.207V0.215h9.379v2.598h-3.209v8.097h-2.963V2.812z"/>
			</g>
		</g>
		<g id="line-2">
			<g id="word-2">
				
					<linearGradient id="character-1_7_" gradientUnits="userSpaceOnUse" x1="1373.4189" y1="-1875.9165" x2="1373.4189" y2="-1867.5826" gradientTransform="matrix(1 0 0 -1 -1342.5 -1843.5)">
					<stop  offset="0" style="stop-color:#CCCCCC"/>
					<stop  offset="1" style="stop-color:#FFFFFF"/>
				</linearGradient>
				<path id="character-1_1_" fill="url(#character-1_7_)" d="M22.53,23.459v-0.051c0-5.102,3.927-9.102,9.226-9.102
					c3.578,0,5.876,1.501,7.428,3.65l-3.651,2.825c-1-1.249-2.15-2.051-3.827-2.051c-2.448,0-4.174,2.076-4.174,4.625v0.052
					c0,2.625,1.726,4.676,4.174,4.676c1.827,0,2.902-0.851,3.953-2.126l3.648,2.602c-1.648,2.274-3.875,3.95-7.751,3.95
					C26.555,32.51,22.53,28.684,22.53,23.459z"/>
				
					<linearGradient id="character-2_7_" gradientUnits="userSpaceOnUse" x1="1392.2061" y1="-1875.9214" x2="1392.2061" y2="-1867.5862" gradientTransform="matrix(1 0 0 -1 -1342.5 -1843.5)">
					<stop  offset="0" style="stop-color:#CCCCCC"/>
					<stop  offset="1" style="stop-color:#FFFFFF"/>
				</linearGradient>
				<path id="character-2_1_" fill="url(#character-2_7_)" d="M40.279,23.459v-0.051c0-5.025,4.052-9.102,9.453-9.102
					c5.4,0,9.401,4.025,9.401,9.051v0.051c0,5.025-4.052,9.102-9.452,9.102C44.28,32.51,40.279,28.484,40.279,23.459z
					 M54.182,23.459v-0.051c0-2.525-1.825-4.727-4.5-4.727c-2.651,0-4.425,2.147-4.425,4.676v0.051c0,2.525,1.824,4.727,4.476,4.727
					C52.407,28.135,54.182,25.982,54.182,23.459z"/>
				
					<linearGradient id="character-3_7_" gradientUnits="userSpaceOnUse" x1="1412.4697" y1="-1875.9165" x2="1412.4697" y2="-1867.5828" gradientTransform="matrix(1 0 0 -1 -1342.5 -1843.5)">
					<stop  offset="0" style="stop-color:#CCCCCC"/>
					<stop  offset="1" style="stop-color:#FFFFFF"/>
				</linearGradient>
				<path id="character-3_1_" fill="url(#character-3_7_)" d="M61.656,14.656h6.75c6.252,0,9.877,3.601,9.877,8.652v0.049
					c0,5.051-3.676,8.802-9.977,8.802h-6.65V14.656z M68.481,27.857c2.901,0,4.826-1.604,4.826-4.424V23.38
					c0-2.801-1.925-4.426-4.826-4.426h-1.975v8.899h1.975V27.857z"/>
				
					<linearGradient id="character-4_7_" gradientUnits="userSpaceOnUse" x1="1430.3828" y1="-1875.918" x2="1430.3828" y2="-1867.584" gradientTransform="matrix(1 0 0 -1 -1342.5 -1843.5)">
					<stop  offset="0" style="stop-color:#CCCCCC"/>
					<stop  offset="1" style="stop-color:#FFFFFF"/>
				</linearGradient>
				<path id="character-4_1_" fill="url(#character-4_7_)" d="M80.782,14.656h14.076v4.125h-9.275v2.65h8.401v3.821h-8.401v2.774
					h9.401v4.125H80.782V14.656z"/>
			</g>
			<g id="word-3">
				
					<linearGradient id="character-1_8_" gradientUnits="userSpaceOnUse" x1="1454.6738" y1="-1875.9165" x2="1454.6738" y2="-1867.5826" gradientTransform="matrix(1 0 0 -1 -1342.5 -1843.5)">
					<stop  offset="0" style="stop-color:#CCCCCC"/>
					<stop  offset="1" style="stop-color:#FFFFFF"/>
				</linearGradient>
				<path id="character-1_2_" fill="url(#character-1_8_)" d="M103.783,23.459v-0.051c0-5.102,3.926-9.102,9.225-9.102
					c3.577,0,5.877,1.501,7.428,3.65l-3.646,2.825c-0.999-1.249-2.146-2.051-3.824-2.051c-2.452,0-4.178,2.076-4.178,4.625v0.052
					c0,2.625,1.726,4.676,4.178,4.676c1.824,0,2.896-0.851,3.949-2.126l3.647,2.602c-1.646,2.274-3.877,3.95-7.754,3.95
					C107.809,32.51,103.783,28.684,103.783,23.459z"/>
				
					<linearGradient id="character-2_8_" gradientUnits="userSpaceOnUse" x1="1473.3701" y1="-1875.9165" x2="1473.3701" y2="-1867.5825" gradientTransform="matrix(1 0 0 -1 -1342.5 -1843.5)">
					<stop  offset="0" style="stop-color:#CCCCCC"/>
					<stop  offset="1" style="stop-color:#FFFFFF"/>
				</linearGradient>
				<path id="character-2_2_" fill="url(#character-2_8_)" d="M128.531,14.532h4.677l7.449,17.627h-5.2l-1.275-3.125h-6.75
					l-1.25,3.125h-5.101L128.531,14.532z M132.781,25.258l-1.949-4.976l-1.977,4.976H132.781z"/>
				
					<linearGradient id="character-3_8_" gradientUnits="userSpaceOnUse" x1="1494.1582" y1="-1875.9165" x2="1494.1582" y2="-1867.5828" gradientTransform="matrix(1 0 0 -1 -1342.5 -1843.5)">
					<stop  offset="0" style="stop-color:#CCCCCC"/>
					<stop  offset="1" style="stop-color:#FFFFFF"/>
				</linearGradient>
				<path id="character-3_2_" fill="url(#character-3_8_)" d="M142.355,14.656h5.127l4.177,6.775l4.174-6.775h5.127v17.503h-4.825
					V22.107l-4.476,6.852h-0.103l-4.449-6.801v10.001h-4.752V14.656z"/>
				
					<linearGradient id="character-4_8_" gradientUnits="userSpaceOnUse" x1="1513.9482" y1="-1875.9165" x2="1513.9482" y2="-1867.5828" gradientTransform="matrix(1 0 0 -1 -1342.5 -1843.5)">
					<stop  offset="0" style="stop-color:#CCCCCC"/>
					<stop  offset="1" style="stop-color:#FFFFFF"/>
				</linearGradient>
				<path id="character-4_2_" fill="url(#character-4_8_)" d="M164.061,14.656h7.498c4.428,0,7.275,2.275,7.275,6.152v0.049
					c0,4.125-3.174,6.301-7.525,6.301h-2.396v5.001h-4.853V14.656L164.061,14.656z M171.208,23.357c1.728,0,2.776-0.9,2.776-2.274
					v-0.05c0-1.5-1.051-2.301-2.801-2.301h-2.275v4.625H171.208z"/>
			</g>
		</g>
	</g>
</g>
<g id="hover" opacity="0">
	<g id="wrappers_1_">
		<g id="left_1_">
			<path fill="#AAAAAA" d="M0,17.676v-3.1l15.819-6.52v2.227L1.828,16.125l13.991,5.842v2.188L0,17.676z"/>
		</g>
		<g id="right_1_">
			<path fill="#AAAAAA" d="M184.182,24.113V21.93l13.989-5.844l-13.989-5.843V8.057L200,14.535v3.1L184.182,24.113z"/>
		</g>
	</g>
	<g id="text_1_">
		<g id="line-1_1_">
			<g id="word-1_1_">
				<path id="character-1_5_" fill="#1595D3" d="M26.11,0.215h3.316l2.428,6.768l2.429-6.768h3.254l-4.339,10.77h-2.75L26.11,0.215z
					"/>
				<path id="character-2_5_" fill="#1595D3" d="M50.047,0.215h8.602v2.52H52.98v1.62h5.134v2.339H52.98v1.695h5.744v2.521h-8.678
					L50.047,0.215L50.047,0.215z"/>
				<path id="character-3_5_" fill="#1595D3" d="M71.707,0.215h5.058c1.635,0,2.765,0.428,3.483,1.16
					c0.626,0.611,0.947,1.438,0.947,2.491v0.03c0,1.635-0.872,2.72-2.199,3.285l2.55,3.728h-3.421L75.971,7.67H75.94h-1.268v3.239
					h-2.965V0.215z M76.627,5.348c1.008,0,1.589-0.488,1.589-1.268V4.049c0-0.839-0.61-1.268-1.604-1.268h-1.94v2.566L76.627,5.348
					L76.627,5.348z"/>
				<path id="character-4_5_" fill="#1595D3" d="M94.163,0.215h3.132l2.551,4.14l2.552-4.14h3.131v10.694h-2.948V4.768l-2.734,4.186
					h-0.061l-2.72-4.155v6.111h-2.902L94.163,0.215L94.163,0.215z"/>
				<path id="character-5_1_" fill="#1595D3" d="M118.527,5.593V5.562c0-3.071,2.477-5.562,5.771-5.562s5.744,2.461,5.744,5.531
					v0.03c0,3.071-2.479,5.562-5.771,5.562C120.975,11.123,118.527,8.663,118.527,5.593z M127.021,5.593V5.562
					c0-1.542-1.115-2.887-2.75-2.887c-1.619,0-2.703,1.313-2.703,2.856v0.03c0,1.543,1.115,2.888,2.73,2.888
					C125.939,8.449,127.021,7.135,127.021,5.593z"/>
				<path id="character-6_1_" fill="#1595D3" d="M143.062,0.215h2.767l4.399,5.652V0.215h2.934v10.694h-2.6l-4.564-5.867v5.867
					h-2.936V0.215z"/>
				<path id="character-7_1_" fill="#1595D3" d="M169.141,2.812h-3.207V0.215h9.379v2.598h-3.209v8.097h-2.963V2.812z"/>
			</g>
		</g>
		<g id="line-2_1_">
			<g id="word-2_1_">
				<path id="character-1_4_" fill="#1595D3" d="M22.53,23.459v-0.051c0-5.102,3.927-9.102,9.226-9.102
					c3.578,0,5.876,1.501,7.428,3.65l-3.651,2.825c-1-1.249-2.15-2.051-3.827-2.051c-2.448,0-4.174,2.076-4.174,4.625v0.052
					c0,2.625,1.726,4.676,4.174,4.676c1.827,0,2.902-0.851,3.953-2.126l3.648,2.602c-1.648,2.274-3.875,3.95-7.751,3.95
					C26.555,32.51,22.53,28.684,22.53,23.459z"/>
				<path id="character-2_4_" fill="#1595D3" d="M40.279,23.459v-0.051c0-5.025,4.052-9.102,9.453-9.102
					c5.4,0,9.401,4.025,9.401,9.051v0.051c0,5.025-4.052,9.102-9.452,9.102C44.28,32.51,40.279,28.484,40.279,23.459z
					 M54.182,23.459v-0.051c0-2.525-1.825-4.727-4.5-4.727c-2.651,0-4.425,2.147-4.425,4.676v0.051c0,2.525,1.824,4.727,4.476,4.727
					C52.407,28.135,54.182,25.982,54.182,23.459z"/>
				<path id="character-3_4_" fill="#1595D3" d="M61.656,14.656h6.75c6.252,0,9.877,3.601,9.877,8.652v0.049
					c0,5.051-3.676,8.802-9.977,8.802h-6.65V14.656z M68.481,27.857c2.901,0,4.826-1.604,4.826-4.424V23.38
					c0-2.801-1.925-4.426-4.826-4.426h-1.975v8.899h1.975V27.857z"/>
				<path id="character-4_4_" fill="#1595D3" d="M80.782,14.656h14.076v4.125h-9.275v2.65h8.401v3.821h-8.401v2.774h9.401v4.125
					H80.782V14.656z"/>
			</g>
			<g id="word-3_1_">
				<path id="character-1_3_" fill="#1595D3" d="M103.783,23.459v-0.051c0-5.102,3.926-9.102,9.225-9.102
					c3.577,0,5.877,1.501,7.428,3.65l-3.646,2.825c-0.999-1.249-2.146-2.051-3.824-2.051c-2.452,0-4.178,2.076-4.178,4.625v0.052
					c0,2.625,1.726,4.676,4.178,4.676c1.824,0,2.896-0.851,3.949-2.126l3.647,2.602c-1.646,2.274-3.877,3.95-7.754,3.95
					C107.809,32.51,103.783,28.684,103.783,23.459z"/>
				<path id="character-2_3_" fill="#1595D3" d="M128.531,14.532h4.677l7.449,17.627h-5.2l-1.275-3.125h-6.75l-1.25,3.125h-5.101
					L128.531,14.532z M132.781,25.258l-1.949-4.976l-1.977,4.976H132.781z"/>
				<path id="character-3_3_" fill="#1595D3" d="M142.355,14.656h5.127l4.177,6.775l4.174-6.775h5.127v17.503h-4.825V22.107
					l-4.476,6.852h-0.103l-4.449-6.801v10.001h-4.752V14.656z"/>
				<path id="character-4_3_" fill="#1595D3" d="M164.061,14.656h7.498c4.428,0,7.275,2.275,7.275,6.152v0.049
					c0,4.125-3.174,6.301-7.525,6.301h-2.396v5.001h-4.853V14.656L164.061,14.656z M171.208,23.357c1.728,0,2.776-0.9,2.776-2.274
					v-0.05c0-1.5-1.051-2.301-2.801-2.301h-2.275v4.625H171.208z"/>
			</g>
		</g>
	</g>
</g>
</svg>
